<?xml version="1.0" encoding="UTF-8" standalone="no"?><svg xmlns="http://www.w3.org/2000/svg" xmlns:xlink="http://www.w3.org/1999/xlink" clip-rule="evenodd" stroke-miterlimit="10" viewBox="0 0 800 600"><desc>SVG generated by Keynote</desc><defs></defs><g transform="matrix(1.00, 0.00, -0.00, -1.00, 0.0, 600.0)"><g><clipPath id="clip0x7fa2bf0cd070"><path d="M 0.0 600.0 L 800.0 600.0 L 800.0 0.0 L 0.0 0.0 Z M 0.0 600.0 "></path></clipPath><g clip-path="url(#clip0x7fa2bf0cd070)"><image xlink:href="../../C4DDE765-8938-4467-BDB7-430C61022F9E/assets/CA73AF76AA37EA4881A8CFF12D65F767.jpeg" width="640.00" height="400.00" transform="matrix(1.25, 0.00, -0.00, -1.50, 0.0, 600.0)"></image></g></g><image xlink:href="956EBF37255DD9D050D3049A4942AE6F.png" width="1226.00" height="885.00" transform="matrix(0.65, 0.00, -0.00, -0.68, 0.0, 600.0)"></image><text xml:space="preserve" font-family="ArialMT,Arial" font-size="18.0" fill="#FFFFFF" transform="matrix(1.00, 0.00, -0.00, -1.00, 610.3, 579.8)">D</text><text xml:space="preserve" font-family="ArialMT,Arial" font-size="18.0" fill="#FFFFFF" transform="matrix(1.00, 0.00, -0.00, -1.00, 623.3, 579.8)">a</text><text xml:space="preserve" font-family="ArialMT,Arial" font-size="18.0" fill="#FFFFFF" transform="matrix(1.00, 0.00, -0.00, -1.00, 633.3, 579.8)">t</text><text xml:space="preserve" font-family="ArialMT,Arial" font-size="18.0" fill="#FFFFFF" transform="matrix(1.00, 0.00, -0.00, -1.00, 638.3, 579.8)">a</text><text xml:space="preserve" font-family="ArialMT,Arial" font-size="18.0" fill="#FFFFFF" transform="matrix(1.00, 0.00, -0.00, -1.00, 648.3, 579.8)"> </text><text xml:space="preserve" font-family="ArialMT,Arial" font-size="18.0" fill="#FFFFFF" transform="matrix(1.00, 0.00, -0.00, -1.00, 653.3, 579.8)">Q</text><text xml:space="preserve" font-family="ArialMT,Arial" font-size="18.0" fill="#FFFFFF" transform="matrix(1.00, 0.00, -0.00, -1.00, 667.3, 579.8)">u</text><text xml:space="preserve" font-family="ArialMT,Arial" font-size="18.0" fill="#FFFFFF" transform="matrix(1.00, 0.00, -0.00, -1.00, 677.3, 579.8)">e</text><text xml:space="preserve" font-family="ArialMT,Arial" font-size="18.0" fill="#FFFFFF" transform="matrix(1.00, 0.00, -0.00, -1.00, 687.3, 579.8)">r</text><text xml:space="preserve" font-family="ArialMT,Arial" font-size="18.0" fill="#FFFFFF" transform="matrix(1.00, 0.00, -0.00, -1.00, 693.3, 579.8)">y</text><text xml:space="preserve" font-family="ArialMT,Arial" font-size="18.0" fill="#FFFFFF" transform="matrix(1.00, 0.00, -0.00, -1.00, 702.3, 579.8)">i</text><text xml:space="preserve" font-family="ArialMT,Arial" font-size="18.0" fill="#FFFFFF" transform="matrix(1.00, 0.00, -0.00, -1.00, 706.3, 579.8)">n</text><text xml:space="preserve" font-family="ArialMT,Arial" font-size="18.0" fill="#FFFFFF" transform="matrix(1.00, 0.00, -0.00, -1.00, 716.3, 579.8)">g</text><text xml:space="preserve" font-family="ArialMT,Arial" font-size="18.0" fill="#FFFFFF" transform="matrix(1.00, 0.00, -0.00, -1.00, 726.3, 579.8)"> </text><text xml:space="preserve" font-family="ArialMT,Arial" font-size="18.0" fill="#FFFFFF" transform="matrix(1.00, 0.00, -0.00, -1.00, 731.0, 579.8)">T</text><text xml:space="preserve" font-family="ArialMT,Arial" font-size="18.0" fill="#FFFFFF" transform="matrix(1.00, 0.00, -0.00, -1.00, 740.0, 579.8)">o</text><text xml:space="preserve" font-family="ArialMT,Arial" font-size="18.0" fill="#FFFFFF" transform="matrix(1.00, 0.00, -0.00, -1.00, 750.0, 579.8)">o</text><text xml:space="preserve" font-family="ArialMT,Arial" font-size="18.0" fill="#FFFFFF" transform="matrix(1.00, 0.00, -0.00, -1.00, 760.0, 579.8)">l</text></g></svg>