<?xml version="1.0" encoding="UTF-8" standalone="no"?><svg xmlns="http://www.w3.org/2000/svg" xmlns:xlink="http://www.w3.org/1999/xlink" clip-rule="evenodd" stroke-miterlimit="10" viewBox="0 0 239 51"><desc>SVG generated by Keynote</desc><defs></defs><g transform="matrix(1.00, 0.00, -0.00, -1.00, 0.0, 51.0)"><text xml:space="preserve" font-family="Arial-BoldMT,Arial" font-weight="bold" font-size="36.0" fill="#1154CC" transform="matrix(1.00, 0.00, -0.00, -1.00, 0.1, 17.6)">B</text><text xml:space="preserve" font-family="Arial-BoldMT,Arial" font-weight="bold" font-size="36.0" fill="#1154CC" transform="matrix(1.00, 0.00, -0.00, -1.00, 26.1, 17.6)">r</text><text xml:space="preserve" font-family="Arial-BoldMT,Arial" font-weight="bold" font-size="36.0" fill="#1154CC" transform="matrix(1.00, 0.00, -0.00, -1.00, 40.2, 17.6)">a</text><text xml:space="preserve" font-family="Arial-BoldMT,Arial" font-weight="bold" font-size="36.0" fill="#1154CC" transform="matrix(1.00, 0.00, -0.00, -1.00, 60.2, 17.6)">i</text><text xml:space="preserve" font-family="Arial-BoldMT,Arial" font-weight="bold" font-size="36.0" fill="#1154CC" transform="matrix(1.00, 0.00, -0.00, -1.00, 70.2, 17.6)">n</text><text xml:space="preserve" font-family="Arial-BoldMT,Arial" font-weight="bold" font-size="36.0" fill="#1154CC" transform="matrix(1.00, 0.00, -0.00, -1.00, 92.2, 17.6)">B</text><text xml:space="preserve" font-family="Arial-BoldMT,Arial" font-weight="bold" font-size="36.0" fill="#1154CC" transform="matrix(1.00, 0.00, -0.00, -1.00, 118.2, 17.6)">r</text><text xml:space="preserve" font-family="Arial-BoldMT,Arial" font-weight="bold" font-size="36.0" fill="#1154CC" transform="matrix(1.00, 0.00, -0.00, -1.00, 132.2, 17.6)">o</text><text xml:space="preserve" font-family="Arial-BoldMT,Arial" font-weight="bold" font-size="36.0" fill="#1154CC" transform="matrix(1.00, 0.00, -0.00, -1.00, 154.2, 17.6)">w</text><text xml:space="preserve" font-family="Arial-BoldMT,Arial" font-weight="bold" font-size="36.0" fill="#1154CC" transform="matrix(1.00, 0.00, -0.00, -1.00, 182.2, 17.6)">s</text><text xml:space="preserve" font-family="Arial-BoldMT,Arial" font-weight="bold" font-size="36.0" fill="#1154CC" transform="matrix(1.00, 0.00, -0.00, -1.00, 202.3, 17.6)">e</text><text xml:space="preserve" font-family="Arial-BoldMT,Arial" font-weight="bold" font-size="36.0" fill="#1154CC" transform="matrix(1.00, 0.00, -0.00, -1.00, 222.3, 17.6)">r</text><g><clipPath id="clip0x7fa2be957260"><path d="M -0.9 10.9 L 236.2 10.9 L 236.2 16.7 L -0.9 16.7 Z M -0.9 10.9 "></path></clipPath><g clip-path="url(#clip0x7fa2be957260)"><path d="M 237.8 40.0 L 473.8 40.0 " fill="none" stroke="#1154CC" stroke-width="3.78" transform="matrix(1.00, 0.00, 0.00, -1.00, -237.6, 53.8)"></path></g></g></g></svg>