<?xml version="1.0" encoding="UTF-8" standalone="no"?><svg xmlns="http://www.w3.org/2000/svg" xmlns:xlink="http://www.w3.org/1999/xlink" clip-rule="evenodd" stroke-miterlimit="10" viewBox="0 0 800 600"><desc>SVG generated by Keynote</desc><defs></defs><g transform="matrix(1.00, 0.00, -0.00, -1.00, 0.0, 600.0)"><path d="M 0.0 600.0 L 800.0 600.0 L 800.0 0.0 L 0.0 0.0 Z M 0.0 600.0 " fill="#FFFFFF"></path><image xlink:href="../../3B8FA484-FB75-41E1-9A47-09960EE2434D/assets/B570FB6273FC6E30BA380603A6BB6371.png" width="1235.00" height="904.00" transform="matrix(0.65, 0.00, -0.00, -0.66, 0.0, 600.0)"></image><g><clipPath id="clip0x7fa2bf07c460"><path d="M 139.8 79.6 L 787.5 79.6 L 787.5 119.9 L 139.8 119.9 Z M 139.8 79.6 "></path></clipPath><g clip-path="url(#clip0x7fa2bf07c460)"><path d="M 141.0 119.0 L 786.0 119.0 L 786.0 81.0 L 141.0 81.0 Z M 140.8 118.9 " fill="#FFF1CC"></path></g></g><g><clipPath id="clip0x7fa2bf07d220"><path d="M 140.8 84.1 L 786.5 84.1 L 786.5 118.9 L 140.8 118.9 Z M 140.8 84.1 "></path></clipPath><g clip-path="url(#clip0x7fa2bf07d220)"><text xml:space="preserve" font-family="ArialMT,Arial" font-size="18.0" fill="#000000" transform="matrix(1.00, 0.00, -0.00, -1.00, 164.3, 95.1)">F</text><text xml:space="preserve" font-family="ArialMT,Arial" font-size="18.0" fill="#000000" transform="matrix(1.00, 0.00, -0.00, -1.00, 175.3, 95.1)">o</text><text xml:space="preserve" font-family="ArialMT,Arial" font-size="18.0" fill="#000000" transform="matrix(1.00, 0.00, -0.00, -1.00, 185.3, 95.1)">r</text><text xml:space="preserve" font-family="ArialMT,Arial" font-size="18.0" fill="#000000" transform="matrix(1.00, 0.00, -0.00, -1.00, 191.3, 95.1)"> </text><text xml:space="preserve" font-family="ArialMT,Arial" font-size="18.0" fill="#000000" transform="matrix(1.00, 0.00, -0.00, -1.00, 196.3, 95.1)">l</text><text xml:space="preserve" font-family="ArialMT,Arial" font-size="18.0" fill="#000000" transform="matrix(1.00, 0.00, -0.00, -1.00, 200.3, 95.1)">i</text><text xml:space="preserve" font-family="ArialMT,Arial" font-size="18.0" fill="#000000" transform="matrix(1.00, 0.00, -0.00, -1.00, 204.3, 95.1)">s</text><text xml:space="preserve" font-family="ArialMT,Arial" font-size="18.0" fill="#000000" transform="matrix(1.00, 0.00, -0.00, -1.00, 213.3, 95.1)">t</text><text xml:space="preserve" font-family="ArialMT,Arial" font-size="18.0" fill="#000000" transform="matrix(1.00, 0.00, -0.00, -1.00, 218.3, 95.1)"> </text><text xml:space="preserve" font-family="ArialMT,Arial" font-size="18.0" fill="#000000" transform="matrix(1.00, 0.00, -0.00, -1.00, 223.3, 95.1)">o</text><text xml:space="preserve" font-family="ArialMT,Arial" font-size="18.0" fill="#000000" transform="matrix(1.00, 0.00, -0.00, -1.00, 233.3, 95.1)">f</text><text xml:space="preserve" font-family="ArialMT,Arial" font-size="18.0" fill="#000000" transform="matrix(1.00, 0.00, -0.00, -1.00, 238.3, 95.1)"> </text><text xml:space="preserve" font-family="ArialMT,Arial" font-size="18.0" fill="#000000" transform="matrix(1.00, 0.00, -0.00, -1.00, 243.3, 95.1)">4</text><text xml:space="preserve" font-family="ArialMT,Arial" font-size="18.0" fill="#000000" transform="matrix(1.00, 0.00, -0.00, -1.00, 253.3, 95.1)">0</text><text xml:space="preserve" font-family="ArialMT,Arial" font-size="18.0" fill="#000000" transform="matrix(1.00, 0.00, -0.00, -1.00, 263.3, 95.1)">0</text><text xml:space="preserve" font-family="ArialMT,Arial" font-size="18.0" fill="#000000" transform="matrix(1.00, 0.00, -0.00, -1.00, 273.3, 95.1)">+</text><text xml:space="preserve" font-family="ArialMT,Arial" font-size="18.0" fill="#000000" transform="matrix(1.00, 0.00, -0.00, -1.00, 283.9, 95.1)"> </text><text xml:space="preserve" font-family="ArialMT,Arial" font-size="18.0" fill="#000000" transform="matrix(1.00, 0.00, -0.00, -1.00, 288.9, 95.1)">i</text><text xml:space="preserve" font-family="ArialMT,Arial" font-size="18.0" fill="#000000" transform="matrix(1.00, 0.00, -0.00, -1.00, 292.9, 95.1)">n</text><text xml:space="preserve" font-family="ArialMT,Arial" font-size="18.0" fill="#000000" transform="matrix(1.00, 0.00, -0.00, -1.00, 302.9, 95.1)">s</text><text xml:space="preserve" font-family="ArialMT,Arial" font-size="18.0" fill="#000000" transform="matrix(1.00, 0.00, -0.00, -1.00, 311.9, 95.1)">t</text><text xml:space="preserve" font-family="ArialMT,Arial" font-size="18.0" fill="#000000" transform="matrix(1.00, 0.00, -0.00, -1.00, 316.9, 95.1)">r</text><text xml:space="preserve" font-family="ArialMT,Arial" font-size="18.0" fill="#000000" transform="matrix(1.00, 0.00, -0.00, -1.00, 322.9, 95.1)">u</text><text xml:space="preserve" font-family="ArialMT,Arial" font-size="18.0" fill="#000000" transform="matrix(1.00, 0.00, -0.00, -1.00, 332.9, 95.1)">m</text><text xml:space="preserve" font-family="ArialMT,Arial" font-size="18.0" fill="#000000" transform="matrix(1.00, 0.00, -0.00, -1.00, 347.9, 95.1)">e</text><text xml:space="preserve" font-family="ArialMT,Arial" font-size="18.0" fill="#000000" transform="matrix(1.00, 0.00, -0.00, -1.00, 357.9, 95.1)">n</text><text xml:space="preserve" font-family="ArialMT,Arial" font-size="18.0" fill="#000000" transform="matrix(1.00, 0.00, -0.00, -1.00, 367.9, 95.1)">t</text><text xml:space="preserve" font-family="ArialMT,Arial" font-size="18.0" fill="#000000" transform="matrix(1.00, 0.00, -0.00, -1.00, 372.9, 95.1)">s</text><text xml:space="preserve" font-family="ArialMT,Arial" font-size="18.0" fill="#000000" transform="matrix(1.00, 0.00, -0.00, -1.00, 381.9, 95.1)">:</text><text xml:space="preserve" font-family="ArialMT,Arial" font-size="18.0" fill="#000000" transform="matrix(1.00, 0.00, -0.00, -1.00, 386.9, 95.1)"> </text><text xml:space="preserve" font-family="ArialMT,Arial" font-size="18.0" fill="#1154CC" transform="matrix(1.00, 0.00, -0.00, -1.00, 391.9, 95.1)">h</text><text xml:space="preserve" font-family="ArialMT,Arial" font-size="18.0" fill="#1154CC" transform="matrix(1.00, 0.00, -0.00, -1.00, 401.9, 95.1)">t</text><text xml:space="preserve" font-family="ArialMT,Arial" font-size="18.0" fill="#1154CC" transform="matrix(1.00, 0.00, -0.00, -1.00, 406.9, 95.1)">t</text><text xml:space="preserve" font-family="ArialMT,Arial" font-size="18.0" fill="#1154CC" transform="matrix(1.00, 0.00, -0.00, -1.00, 411.9, 95.1)">p</text><text xml:space="preserve" font-family="ArialMT,Arial" font-size="18.0" fill="#1154CC" transform="matrix(1.00, 0.00, -0.00, -1.00, 421.9, 95.1)">s</text><text xml:space="preserve" font-family="ArialMT,Arial" font-size="18.0" fill="#1154CC" transform="matrix(1.00, 0.00, -0.00, -1.00, 430.9, 95.1)">:</text><text xml:space="preserve" font-family="ArialMT,Arial" font-size="18.0" fill="#1154CC" transform="matrix(1.00, 0.00, -0.00, -1.00, 435.9, 95.1)">/</text><text xml:space="preserve" font-family="ArialMT,Arial" font-size="18.0" fill="#1154CC" transform="matrix(1.00, 0.00, -0.00, -1.00, 440.9, 95.1)">/</text><text xml:space="preserve" font-family="ArialMT,Arial" font-size="18.0" fill="#1154CC" transform="matrix(1.00, 0.00, -0.00, -1.00, 445.9, 95.1)">s</text><text xml:space="preserve" font-family="ArialMT,Arial" font-size="18.0" fill="#1154CC" transform="matrix(1.00, 0.00, -0.00, -1.00, 454.9, 95.1)">i</text><text xml:space="preserve" font-family="ArialMT,Arial" font-size="18.0" fill="#1154CC" transform="matrix(1.00, 0.00, -0.00, -1.00, 458.9, 95.1)">t</text><text xml:space="preserve" font-family="ArialMT,Arial" font-size="18.0" fill="#1154CC" transform="matrix(1.00, 0.00, -0.00, -1.00, 463.9, 95.1)">e</text><text xml:space="preserve" font-family="ArialMT,Arial" font-size="18.0" fill="#1154CC" transform="matrix(1.00, 0.00, -0.00, -1.00, 473.9, 95.1)">s</text><text xml:space="preserve" font-family="ArialMT,Arial" font-size="18.0" fill="#1154CC" transform="matrix(1.00, 0.00, -0.00, -1.00, 482.9, 95.1)">.</text><text xml:space="preserve" font-family="ArialMT,Arial" font-size="18.0" fill="#1154CC" transform="matrix(1.00, 0.00, -0.00, -1.00, 487.9, 95.1)">g</text><text xml:space="preserve" font-family="ArialMT,Arial" font-size="18.0" fill="#1154CC" transform="matrix(1.00, 0.00, -0.00, -1.00, 497.9, 95.1)">o</text><text xml:space="preserve" font-family="ArialMT,Arial" font-size="18.0" fill="#1154CC" transform="matrix(1.00, 0.00, -0.00, -1.00, 507.9, 95.1)">o</text><text xml:space="preserve" font-family="ArialMT,Arial" font-size="18.0" fill="#1154CC" transform="matrix(1.00, 0.00, -0.00, -1.00, 518.0, 95.1)">g</text><text xml:space="preserve" font-family="ArialMT,Arial" font-size="18.0" fill="#1154CC" transform="matrix(1.00, 0.00, -0.00, -1.00, 528.0, 95.1)">l</text><text xml:space="preserve" font-family="ArialMT,Arial" font-size="18.0" fill="#1154CC" transform="matrix(1.00, 0.00, -0.00, -1.00, 532.0, 95.1)">e</text><text xml:space="preserve" font-family="ArialMT,Arial" font-size="18.0" fill="#1154CC" transform="matrix(1.00, 0.00, -0.00, -1.00, 542.0, 95.1)">.</text><text xml:space="preserve" font-family="ArialMT,Arial" font-size="18.0" fill="#1154CC" transform="matrix(1.00, 0.00, -0.00, -1.00, 547.0, 95.1)">c</text><text xml:space="preserve" font-family="ArialMT,Arial" font-size="18.0" fill="#1154CC" transform="matrix(1.00, 0.00, -0.00, -1.00, 556.0, 95.1)">o</text><text xml:space="preserve" font-family="ArialMT,Arial" font-size="18.0" fill="#1154CC" transform="matrix(1.00, 0.00, -0.00, -1.00, 566.0, 95.1)">m</text><text xml:space="preserve" font-family="ArialMT,Arial" font-size="18.0" fill="#1154CC" transform="matrix(1.00, 0.00, -0.00, -1.00, 581.0, 95.1)">/</text><text xml:space="preserve" font-family="ArialMT,Arial" font-size="18.0" fill="#1154CC" transform="matrix(1.00, 0.00, -0.00, -1.00, 586.0, 95.1)">s</text><text xml:space="preserve" font-family="ArialMT,Arial" font-size="18.0" fill="#1154CC" transform="matrix(1.00, 0.00, -0.00, -1.00, 595.0, 95.1)">i</text><text xml:space="preserve" font-family="ArialMT,Arial" font-size="18.0" fill="#1154CC" transform="matrix(1.00, 0.00, -0.00, -1.00, 599.0, 95.1)">t</text><text xml:space="preserve" font-family="ArialMT,Arial" font-size="18.0" fill="#1154CC" transform="matrix(1.00, 0.00, -0.00, -1.00, 604.0, 95.1)">e</text><text xml:space="preserve" font-family="ArialMT,Arial" font-size="18.0" fill="#1154CC" transform="matrix(1.00, 0.00, -0.00, -1.00, 614.0, 95.1)">/</text><text xml:space="preserve" font-family="ArialMT,Arial" font-size="18.0" fill="#1154CC" transform="matrix(1.00, 0.00, -0.00, -1.00, 619.0, 95.1)">l</text><text xml:space="preserve" font-family="ArialMT,Arial" font-size="18.0" fill="#1154CC" transform="matrix(1.00, 0.00, -0.00, -1.00, 623.0, 95.1)">o</text><text xml:space="preserve" font-family="ArialMT,Arial" font-size="18.0" fill="#1154CC" transform="matrix(1.00, 0.00, -0.00, -1.00, 633.0, 95.1)">r</text><text xml:space="preserve" font-family="ArialMT,Arial" font-size="18.0" fill="#1154CC" transform="matrix(1.00, 0.00, -0.00, -1.00, 639.0, 95.1)">i</text><text xml:space="preserve" font-family="ArialMT,Arial" font-size="18.0" fill="#1154CC" transform="matrix(1.00, 0.00, -0.00, -1.00, 643.0, 95.1)">s</text><text xml:space="preserve" font-family="ArialMT,Arial" font-size="18.0" fill="#1154CC" transform="matrix(1.00, 0.00, -0.00, -1.00, 652.0, 95.1)">i</text><text xml:space="preserve" font-family="ArialMT,Arial" font-size="18.0" fill="#1154CC" transform="matrix(1.00, 0.00, -0.00, -1.00, 656.0, 95.1)">n</text><text xml:space="preserve" font-family="ArialMT,Arial" font-size="18.0" fill="#1154CC" transform="matrix(1.00, 0.00, -0.00, -1.00, 666.0, 95.1)">s</text><text xml:space="preserve" font-family="ArialMT,Arial" font-size="18.0" fill="#1154CC" transform="matrix(1.00, 0.00, -0.00, -1.00, 675.0, 95.1)">t</text><text xml:space="preserve" font-family="ArialMT,Arial" font-size="18.0" fill="#1154CC" transform="matrix(1.00, 0.00, -0.00, -1.00, 680.0, 95.1)">r</text><text xml:space="preserve" font-family="ArialMT,Arial" font-size="18.0" fill="#1154CC" transform="matrix(1.00, 0.00, -0.00, -1.00, 686.0, 95.1)">u</text><text xml:space="preserve" font-family="ArialMT,Arial" font-size="18.0" fill="#1154CC" transform="matrix(1.00, 0.00, -0.00, -1.00, 696.0, 95.1)">m</text><text xml:space="preserve" font-family="ArialMT,Arial" font-size="18.0" fill="#1154CC" transform="matrix(1.00, 0.00, -0.00, -1.00, 711.0, 95.1)">e</text><text xml:space="preserve" font-family="ArialMT,Arial" font-size="18.0" fill="#1154CC" transform="matrix(1.00, 0.00, -0.00, -1.00, 721.0, 95.1)">n</text><text xml:space="preserve" font-family="ArialMT,Arial" font-size="18.0" fill="#1154CC" transform="matrix(1.00, 0.00, -0.00, -1.00, 731.1, 95.1)">t</text><text xml:space="preserve" font-family="ArialMT,Arial" font-size="18.0" fill="#1154CC" transform="matrix(1.00, 0.00, -0.00, -1.00, 736.1, 95.1)">l</text><text xml:space="preserve" font-family="ArialMT,Arial" font-size="18.0" fill="#1154CC" transform="matrix(1.00, 0.00, -0.00, -1.00, 740.1, 95.1)">i</text><text xml:space="preserve" font-family="ArialMT,Arial" font-size="18.0" fill="#1154CC" transform="matrix(1.00, 0.00, -0.00, -1.00, 744.1, 95.1)">s</text><text xml:space="preserve" font-family="ArialMT,Arial" font-size="18.0" fill="#1154CC" transform="matrix(1.00, 0.00, -0.00, -1.00, 753.1, 95.1)">t</text><text xml:space="preserve" font-family="ArialMT,Arial" font-size="18.0" fill="#1154CC" transform="matrix(1.00, 0.00, -0.00, -1.00, 758.1, 95.1)">/</text><path d="M 251.0 25.7 L 622.2 25.7 " fill="none" stroke="#1154CC" stroke-width="1.32" transform="matrix(1.00, 0.00, 0.00, -1.00, 140.8, 118.9)"></path></g></g></g></svg>