<?xml version="1.0" encoding="UTF-8" standalone="no"?><svg xmlns="http://www.w3.org/2000/svg" xmlns:xlink="http://www.w3.org/1999/xlink" clip-rule="evenodd" stroke-miterlimit="10" viewBox="0 0 800 600"><desc>SVG generated by Keynote</desc><defs></defs><g transform="matrix(1.00, 0.00, -0.00, -1.00, 0.0, 600.0)"><g><clipPath id="clip0x7fa2be935580"><path d="M 0.0 600.0 L 800.0 600.0 L 800.0 0.0 L 0.0 0.0 Z M 0.0 600.0 "></path></clipPath><g clip-path="url(#clip0x7fa2be935580)"><image xlink:href="../../C4DDE765-8938-4467-BDB7-430C61022F9E/assets/CA73AF76AA37EA4881A8CFF12D65F767.jpeg" width="640.00" height="400.00" transform="matrix(1.25, 0.00, -0.00, -1.50, 0.0, 600.0)"></image></g></g><text xml:space="preserve" font-family="Arial-BoldMT,Arial" font-weight="bold" font-size="36.0" fill="#444444" transform="matrix(1.00, 0.00, -0.00, -1.00, 154.6, 563.8)">R</text><text xml:space="preserve" font-family="Arial-BoldMT,Arial" font-weight="bold" font-size="36.0" fill="#444444" transform="matrix(1.00, 0.00, -0.00, -1.00, 180.6, 563.8)">e</text><text xml:space="preserve" font-family="Arial-BoldMT,Arial" font-weight="bold" font-size="36.0" fill="#444444" transform="matrix(1.00, 0.00, -0.00, -1.00, 200.6, 563.8)">q</text><text xml:space="preserve" font-family="Arial-BoldMT,Arial" font-weight="bold" font-size="36.0" fill="#444444" transform="matrix(1.00, 0.00, -0.00, -1.00, 222.6, 563.8)">u</text><text xml:space="preserve" font-family="Arial-BoldMT,Arial" font-weight="bold" font-size="36.0" fill="#444444" transform="matrix(1.00, 0.00, -0.00, -1.00, 244.6, 563.8)">i</text><text xml:space="preserve" font-family="Arial-BoldMT,Arial" font-weight="bold" font-size="36.0" fill="#444444" transform="matrix(1.00, 0.00, -0.00, -1.00, 254.6, 563.8)">r</text><text xml:space="preserve" font-family="Arial-BoldMT,Arial" font-weight="bold" font-size="36.0" fill="#444444" transform="matrix(1.00, 0.00, -0.00, -1.00, 268.6, 563.8)">e</text><text xml:space="preserve" font-family="Arial-BoldMT,Arial" font-weight="bold" font-size="36.0" fill="#444444" transform="matrix(1.00, 0.00, -0.00, -1.00, 288.6, 563.8)">m</text><text xml:space="preserve" font-family="Arial-BoldMT,Arial" font-weight="bold" font-size="36.0" fill="#444444" transform="matrix(1.00, 0.00, -0.00, -1.00, 320.7, 563.8)">e</text><text xml:space="preserve" font-family="Arial-BoldMT,Arial" font-weight="bold" font-size="36.0" fill="#444444" transform="matrix(1.00, 0.00, -0.00, -1.00, 340.7, 563.8)">n</text><text xml:space="preserve" font-family="Arial-BoldMT,Arial" font-weight="bold" font-size="36.0" fill="#444444" transform="matrix(1.00, 0.00, -0.00, -1.00, 362.7, 563.8)">t</text><text xml:space="preserve" font-family="Arial-BoldMT,Arial" font-weight="bold" font-size="36.0" fill="#444444" transform="matrix(1.00, 0.00, -0.00, -1.00, 374.7, 563.8)">s</text><text xml:space="preserve" font-family="Arial-BoldMT,Arial" font-weight="bold" font-size="36.0" fill="#444444" transform="matrix(1.00, 0.00, -0.00, -1.00, 394.7, 563.8)"> </text><text xml:space="preserve" font-family="Arial-BoldMT,Arial" font-weight="bold" font-size="36.0" fill="#444444" transform="matrix(1.00, 0.00, -0.00, -1.00, 404.7, 563.8)">f</text><text xml:space="preserve" font-family="Arial-BoldMT,Arial" font-weight="bold" font-size="36.0" fill="#444444" transform="matrix(1.00, 0.00, -0.00, -1.00, 416.7, 563.8)">o</text><text xml:space="preserve" font-family="Arial-BoldMT,Arial" font-weight="bold" font-size="36.0" fill="#444444" transform="matrix(1.00, 0.00, -0.00, -1.00, 438.7, 563.8)">r</text><text xml:space="preserve" font-family="Arial-BoldMT,Arial" font-weight="bold" font-size="36.0" fill="#444444" transform="matrix(1.00, 0.00, -0.00, -1.00, 452.7, 563.8)"> </text><text xml:space="preserve" font-family="Arial-BoldMT,Arial" font-weight="bold" font-size="36.0" fill="#444444" transform="matrix(1.00, 0.00, -0.00, -1.00, 462.7, 563.8)">B</text><text xml:space="preserve" font-family="Arial-BoldMT,Arial" font-weight="bold" font-size="36.0" fill="#444444" transform="matrix(1.00, 0.00, -0.00, -1.00, 488.7, 563.8)">I</text><text xml:space="preserve" font-family="Arial-BoldMT,Arial" font-weight="bold" font-size="36.0" fill="#444444" transform="matrix(1.00, 0.00, -0.00, -1.00, 498.7, 563.8)">C</text><text xml:space="preserve" font-family="Arial-BoldMT,Arial" font-weight="bold" font-size="36.0" fill="#444444" transform="matrix(1.00, 0.00, -0.00, -1.00, 524.7, 563.8)"> </text><text xml:space="preserve" font-family="Arial-BoldMT,Arial" font-weight="bold" font-size="36.0" fill="#444444" transform="matrix(1.00, 0.00, -0.00, -1.00, 534.7, 563.8)">s</text><text xml:space="preserve" font-family="Arial-BoldMT,Arial" font-weight="bold" font-size="36.0" fill="#444444" transform="matrix(1.00, 0.00, -0.00, -1.00, 554.7, 563.8)">e</text><text xml:space="preserve" font-family="Arial-BoldMT,Arial" font-weight="bold" font-size="36.0" fill="#444444" transform="matrix(1.00, 0.00, -0.00, -1.00, 574.7, 563.8)">t</text><text xml:space="preserve" font-family="Arial-BoldMT,Arial" font-weight="bold" font-size="36.0" fill="#444444" transform="matrix(1.00, 0.00, -0.00, -1.00, 586.7, 563.8)"> </text><text xml:space="preserve" font-family="Arial-BoldMT,Arial" font-weight="bold" font-size="36.0" fill="#444444" transform="matrix(1.00, 0.00, -0.00, -1.00, 596.7, 563.8)">u</text><text xml:space="preserve" font-family="Arial-BoldMT,Arial" font-weight="bold" font-size="36.0" fill="#444444" transform="matrix(1.00, 0.00, -0.00, -1.00, 618.7, 563.8)">p</text><text xml:space="preserve" font-family="ArialMT,Arial" font-size="24.0" fill="#FFFFFF" transform="matrix(1.00, 0.00, -0.00, -1.00, 112.6, 425.8)">●</text><text xml:space="preserve" font-family="ArialMT,Arial" font-size="24.0" fill="#FFFFFF" transform="matrix(1.00, 0.00, -0.00, -1.00, 142.6, 425.8)">R</text><text xml:space="preserve" font-family="ArialMT,Arial" font-size="24.0" fill="#FFFFFF" transform="matrix(1.00, 0.00, -0.00, -1.00, 160.0, 425.8)">e</text><text xml:space="preserve" font-family="ArialMT,Arial" font-size="24.0" fill="#FFFFFF" transform="matrix(1.00, 0.00, -0.00, -1.00, 173.3, 425.8)">s</text><text xml:space="preserve" font-family="ArialMT,Arial" font-size="24.0" fill="#FFFFFF" transform="matrix(1.00, 0.00, -0.00, -1.00, 185.3, 425.8)">o</text><text xml:space="preserve" font-family="ArialMT,Arial" font-size="24.0" fill="#FFFFFF" transform="matrix(1.00, 0.00, -0.00, -1.00, 198.7, 425.8)">u</text><text xml:space="preserve" font-family="ArialMT,Arial" font-size="24.0" fill="#FFFFFF" transform="matrix(1.00, 0.00, -0.00, -1.00, 212.0, 425.8)">r</text><text xml:space="preserve" font-family="ArialMT,Arial" font-size="24.0" fill="#FFFFFF" transform="matrix(1.00, 0.00, -0.00, -1.00, 220.0, 425.8)">c</text><text xml:space="preserve" font-family="ArialMT,Arial" font-size="24.0" fill="#FFFFFF" transform="matrix(1.00, 0.00, -0.00, -1.00, 232.0, 425.8)">e</text><text xml:space="preserve" font-family="ArialMT,Arial" font-size="24.0" fill="#FFFFFF" transform="matrix(1.00, 0.00, -0.00, -1.00, 245.4, 425.8)">s</text><text xml:space="preserve" font-family="ArialMT,Arial" font-size="24.0" fill="#FFFFFF" transform="matrix(1.00, 0.00, -0.00, -1.00, 257.4, 425.8)"> </text><text xml:space="preserve" font-family="ArialMT,Arial" font-size="24.0" fill="#FFFFFF" transform="matrix(1.00, 0.00, -0.00, -1.00, 264.0, 425.8)">f</text><text xml:space="preserve" font-family="ArialMT,Arial" font-size="24.0" fill="#FFFFFF" transform="matrix(1.00, 0.00, -0.00, -1.00, 270.7, 425.8)">o</text><text xml:space="preserve" font-family="ArialMT,Arial" font-size="24.0" fill="#FFFFFF" transform="matrix(1.00, 0.00, -0.00, -1.00, 284.0, 425.8)">r</text><text xml:space="preserve" font-family="ArialMT,Arial" font-size="24.0" fill="#FFFFFF" transform="matrix(1.00, 0.00, -0.00, -1.00, 292.0, 425.8)"> </text><text xml:space="preserve" font-family="ArialMT,Arial" font-size="24.0" fill="#FFFFFF" transform="matrix(1.00, 0.00, -0.00, -1.00, 298.7, 425.8)">i</text><text xml:space="preserve" font-family="ArialMT,Arial" font-size="24.0" fill="#FFFFFF" transform="matrix(1.00, 0.00, -0.00, -1.00, 304.0, 425.8)">n</text><text xml:space="preserve" font-family="ArialMT,Arial" font-size="24.0" fill="#FFFFFF" transform="matrix(1.00, 0.00, -0.00, -1.00, 317.4, 425.8)">s</text><text xml:space="preserve" font-family="ArialMT,Arial" font-size="24.0" fill="#FFFFFF" transform="matrix(1.00, 0.00, -0.00, -1.00, 329.4, 425.8)">t</text><text xml:space="preserve" font-family="ArialMT,Arial" font-size="24.0" fill="#FFFFFF" transform="matrix(1.00, 0.00, -0.00, -1.00, 336.0, 425.8)">a</text><text xml:space="preserve" font-family="ArialMT,Arial" font-size="24.0" fill="#FFFFFF" transform="matrix(1.00, 0.00, -0.00, -1.00, 349.4, 425.8)">l</text><text xml:space="preserve" font-family="ArialMT,Arial" font-size="24.0" fill="#FFFFFF" transform="matrix(1.00, 0.00, -0.00, -1.00, 354.7, 425.8)">l</text><text xml:space="preserve" font-family="ArialMT,Arial" font-size="24.0" fill="#FFFFFF" transform="matrix(1.00, 0.00, -0.00, -1.00, 360.1, 425.8)">a</text><text xml:space="preserve" font-family="ArialMT,Arial" font-size="24.0" fill="#FFFFFF" transform="matrix(1.00, 0.00, -0.00, -1.00, 373.4, 425.8)">t</text><text xml:space="preserve" font-family="ArialMT,Arial" font-size="24.0" fill="#FFFFFF" transform="matrix(1.00, 0.00, -0.00, -1.00, 380.1, 425.8)">i</text><text xml:space="preserve" font-family="ArialMT,Arial" font-size="24.0" fill="#FFFFFF" transform="matrix(1.00, 0.00, -0.00, -1.00, 385.4, 425.8)">o</text><text xml:space="preserve" font-family="ArialMT,Arial" font-size="24.0" fill="#FFFFFF" transform="matrix(1.00, 0.00, -0.00, -1.00, 398.8, 425.8)">n</text><text xml:space="preserve" font-family="ArialMT,Arial" font-size="24.0" fill="#FFFFFF" transform="matrix(1.00, 0.00, -0.00, -1.00, 412.1, 425.8)"> </text><text xml:space="preserve" font-family="ArialMT,Arial" font-size="24.0" fill="#FFFFFF" transform="matrix(1.00, 0.00, -0.00, -1.00, 418.8, 425.8)">a</text><text xml:space="preserve" font-family="ArialMT,Arial" font-size="24.0" fill="#FFFFFF" transform="matrix(1.00, 0.00, -0.00, -1.00, 432.1, 425.8)">n</text><text xml:space="preserve" font-family="ArialMT,Arial" font-size="24.0" fill="#FFFFFF" transform="matrix(1.00, 0.00, -0.00, -1.00, 445.5, 425.8)">d</text><text xml:space="preserve" font-family="ArialMT,Arial" font-size="24.0" fill="#FFFFFF" transform="matrix(1.00, 0.00, -0.00, -1.00, 458.9, 425.8)"> </text><text xml:space="preserve" font-family="ArialMT,Arial" font-size="24.0" fill="#FFFFFF" transform="matrix(1.00, 0.00, -0.00, -1.00, 465.5, 425.8)">m</text><text xml:space="preserve" font-family="ArialMT,Arial" font-size="24.0" fill="#FFFFFF" transform="matrix(1.00, 0.00, -0.00, -1.00, 485.5, 425.8)">a</text><text xml:space="preserve" font-family="ArialMT,Arial" font-size="24.0" fill="#FFFFFF" transform="matrix(1.00, 0.00, -0.00, -1.00, 498.9, 425.8)">i</text><text xml:space="preserve" font-family="ArialMT,Arial" font-size="24.0" fill="#FFFFFF" transform="matrix(1.00, 0.00, -0.00, -1.00, 504.2, 425.8)">n</text><text xml:space="preserve" font-family="ArialMT,Arial" font-size="24.0" fill="#FFFFFF" transform="matrix(1.00, 0.00, -0.00, -1.00, 517.5, 425.8)">t</text><text xml:space="preserve" font-family="ArialMT,Arial" font-size="24.0" fill="#FFFFFF" transform="matrix(1.00, 0.00, -0.00, -1.00, 524.2, 425.8)">e</text><text xml:space="preserve" font-family="ArialMT,Arial" font-size="24.0" fill="#FFFFFF" transform="matrix(1.00, 0.00, -0.00, -1.00, 537.6, 425.8)">n</text><text xml:space="preserve" font-family="ArialMT,Arial" font-size="24.0" fill="#FFFFFF" transform="matrix(1.00, 0.00, -0.00, -1.00, 550.9, 425.8)">a</text><text xml:space="preserve" font-family="ArialMT,Arial" font-size="24.0" fill="#FFFFFF" transform="matrix(1.00, 0.00, -0.00, -1.00, 564.3, 425.8)">n</text><text xml:space="preserve" font-family="ArialMT,Arial" font-size="24.0" fill="#FFFFFF" transform="matrix(1.00, 0.00, -0.00, -1.00, 577.6, 425.8)">c</text><text xml:space="preserve" font-family="ArialMT,Arial" font-size="24.0" fill="#FFFFFF" transform="matrix(1.00, 0.00, -0.00, -1.00, 589.6, 425.8)">e</text><text xml:space="preserve" font-family="ArialMT,Arial" font-size="24.0" fill="#FFFFFF" transform="matrix(1.00, 0.00, -0.00, -1.00, 603.0, 425.8)"> </text><g><clipPath id="clip0x7fa2bcdeb230"><path d="M 141.6 421.4 L 602.9 421.4 L 602.9 425.1 L 141.6 425.1 Z M 141.6 421.4 "></path></clipPath><g clip-path="url(#clip0x7fa2bcdeb230)"><path d="M 43.2 31.9 L 503.5 31.9 " fill="none" stroke="#FFFFFF" stroke-width="1.76" transform="matrix(1.00, 0.00, 0.00, -1.00, 99.4, 455.1)"></path></g></g><text xml:space="preserve" font-family="ArialMT,Arial" font-size="24.0" fill="#FFFFFF" transform="matrix(1.00, 0.00, -0.00, -1.00, 112.6, 369.8)">●</text><text xml:space="preserve" font-family="ArialMT,Arial" font-size="24.0" fill="#FFFFFF" transform="matrix(1.00, 0.00, -0.00, -1.00, 142.6, 369.8)">S</text><text xml:space="preserve" font-family="ArialMT,Arial" font-size="24.0" fill="#FFFFFF" transform="matrix(1.00, 0.00, -0.00, -1.00, 158.6, 369.8)">y</text><text xml:space="preserve" font-family="ArialMT,Arial" font-size="24.0" fill="#FFFFFF" transform="matrix(1.00, 0.00, -0.00, -1.00, 170.6, 369.8)">s</text><text xml:space="preserve" font-family="ArialMT,Arial" font-size="24.0" fill="#FFFFFF" transform="matrix(1.00, 0.00, -0.00, -1.00, 182.6, 369.8)">t</text><text xml:space="preserve" font-family="ArialMT,Arial" font-size="24.0" fill="#FFFFFF" transform="matrix(1.00, 0.00, -0.00, -1.00, 189.3, 369.8)">e</text><text xml:space="preserve" font-family="ArialMT,Arial" font-size="24.0" fill="#FFFFFF" transform="matrix(1.00, 0.00, -0.00, -1.00, 202.6, 369.8)">m</text><text xml:space="preserve" font-family="ArialMT,Arial" font-size="24.0" fill="#FFFFFF" transform="matrix(1.00, 0.00, -0.00, -1.00, 222.6, 369.8)"> </text><text xml:space="preserve" font-family="ArialMT,Arial" font-size="24.0" fill="#FFFFFF" transform="matrix(1.00, 0.00, -0.00, -1.00, 228.0, 369.8)">A</text><text xml:space="preserve" font-family="ArialMT,Arial" font-size="24.0" fill="#FFFFFF" transform="matrix(1.00, 0.00, -0.00, -1.00, 244.0, 369.8)">d</text><text xml:space="preserve" font-family="ArialMT,Arial" font-size="24.0" fill="#FFFFFF" transform="matrix(1.00, 0.00, -0.00, -1.00, 257.3, 369.8)">m</text><text xml:space="preserve" font-family="ArialMT,Arial" font-size="24.0" fill="#FFFFFF" transform="matrix(1.00, 0.00, -0.00, -1.00, 277.3, 369.8)">i</text><text xml:space="preserve" font-family="ArialMT,Arial" font-size="24.0" fill="#FFFFFF" transform="matrix(1.00, 0.00, -0.00, -1.00, 282.7, 369.8)">n</text><text xml:space="preserve" font-family="ArialMT,Arial" font-size="24.0" fill="#FFFFFF" transform="matrix(1.00, 0.00, -0.00, -1.00, 296.0, 369.8)">i</text><text xml:space="preserve" font-family="ArialMT,Arial" font-size="24.0" fill="#FFFFFF" transform="matrix(1.00, 0.00, -0.00, -1.00, 301.4, 369.8)">s</text><text xml:space="preserve" font-family="ArialMT,Arial" font-size="24.0" fill="#FFFFFF" transform="matrix(1.00, 0.00, -0.00, -1.00, 313.4, 369.8)">t</text><text xml:space="preserve" font-family="ArialMT,Arial" font-size="24.0" fill="#FFFFFF" transform="matrix(1.00, 0.00, -0.00, -1.00, 320.0, 369.8)">r</text><text xml:space="preserve" font-family="ArialMT,Arial" font-size="24.0" fill="#FFFFFF" transform="matrix(1.00, 0.00, -0.00, -1.00, 328.0, 369.8)">a</text><text xml:space="preserve" font-family="ArialMT,Arial" font-size="24.0" fill="#FFFFFF" transform="matrix(1.00, 0.00, -0.00, -1.00, 341.4, 369.8)">t</text><text xml:space="preserve" font-family="ArialMT,Arial" font-size="24.0" fill="#FFFFFF" transform="matrix(1.00, 0.00, -0.00, -1.00, 348.0, 369.8)">i</text><text xml:space="preserve" font-family="ArialMT,Arial" font-size="24.0" fill="#FFFFFF" transform="matrix(1.00, 0.00, -0.00, -1.00, 353.4, 369.8)">o</text><text xml:space="preserve" font-family="ArialMT,Arial" font-size="24.0" fill="#FFFFFF" transform="matrix(1.00, 0.00, -0.00, -1.00, 366.7, 369.8)">n</text><text xml:space="preserve" font-family="ArialMT,Arial" font-size="24.0" fill="#FFFFFF" transform="matrix(1.00, 0.00, -0.00, -1.00, 380.1, 369.8)"> </text><text xml:space="preserve" font-family="ArialMT,Arial" font-size="24.0" fill="#FFFFFF" transform="matrix(1.00, 0.00, -0.00, -1.00, 386.7, 369.8)">f</text><text xml:space="preserve" font-family="ArialMT,Arial" font-size="24.0" fill="#FFFFFF" transform="matrix(1.00, 0.00, -0.00, -1.00, 393.4, 369.8)">o</text><text xml:space="preserve" font-family="ArialMT,Arial" font-size="24.0" fill="#FFFFFF" transform="matrix(1.00, 0.00, -0.00, -1.00, 406.7, 369.8)">r</text><text xml:space="preserve" font-family="ArialMT,Arial" font-size="24.0" fill="#FFFFFF" transform="matrix(1.00, 0.00, -0.00, -1.00, 414.7, 369.8)"> </text><text xml:space="preserve" font-family="ArialMT,Arial" font-size="24.0" fill="#FFFFFF" transform="matrix(1.00, 0.00, -0.00, -1.00, 421.4, 369.8)">s</text><text xml:space="preserve" font-family="ArialMT,Arial" font-size="24.0" fill="#FFFFFF" transform="matrix(1.00, 0.00, -0.00, -1.00, 433.4, 369.8)">e</text><text xml:space="preserve" font-family="ArialMT,Arial" font-size="24.0" fill="#FFFFFF" transform="matrix(1.00, 0.00, -0.00, -1.00, 446.8, 369.8)">r</text><text xml:space="preserve" font-family="ArialMT,Arial" font-size="24.0" fill="#FFFFFF" transform="matrix(1.00, 0.00, -0.00, -1.00, 454.7, 369.8)">v</text><text xml:space="preserve" font-family="ArialMT,Arial" font-size="24.0" fill="#FFFFFF" transform="matrix(1.00, 0.00, -0.00, -1.00, 466.7, 369.8)">e</text><text xml:space="preserve" font-family="ArialMT,Arial" font-size="24.0" fill="#FFFFFF" transform="matrix(1.00, 0.00, -0.00, -1.00, 480.1, 369.8)">r</text><text xml:space="preserve" font-family="ArialMT,Arial" font-size="24.0" fill="#FFFFFF" transform="matrix(1.00, 0.00, -0.00, -1.00, 488.1, 369.8)">s</text><text xml:space="preserve" font-family="ArialMT,Arial" font-size="24.0" fill="#FFFFFF" transform="matrix(1.00, 0.00, -0.00, -1.00, 500.1, 369.8)"> </text><text xml:space="preserve" font-family="ArialMT,Arial" font-size="24.0" fill="#FFFFFF" transform="matrix(1.00, 0.00, -0.00, -1.00, 112.6, 313.8)">●</text><text xml:space="preserve" font-family="ArialMT,Arial" font-size="24.0" fill="#FFFFFF" transform="matrix(1.00, 0.00, -0.00, -1.00, 142.6, 313.8)">B</text><text xml:space="preserve" font-family="ArialMT,Arial" font-size="24.0" fill="#FFFFFF" transform="matrix(1.00, 0.00, -0.00, -1.00, 158.6, 313.8)">u</text><text xml:space="preserve" font-family="ArialMT,Arial" font-size="24.0" fill="#FFFFFF" transform="matrix(1.00, 0.00, -0.00, -1.00, 172.0, 313.8)">y</text><text xml:space="preserve" font-family="ArialMT,Arial" font-size="24.0" fill="#FFFFFF" transform="matrix(1.00, 0.00, -0.00, -1.00, 184.0, 313.8)">-</text><text xml:space="preserve" font-family="ArialMT,Arial" font-size="24.0" fill="#FFFFFF" transform="matrix(1.00, 0.00, -0.00, -1.00, 192.0, 313.8)">i</text><text xml:space="preserve" font-family="ArialMT,Arial" font-size="24.0" fill="#FFFFFF" transform="matrix(1.00, 0.00, -0.00, -1.00, 197.3, 313.8)">n</text><text xml:space="preserve" font-family="ArialMT,Arial" font-size="24.0" fill="#FFFFFF" transform="matrix(1.00, 0.00, -0.00, -1.00, 210.7, 313.8)"> </text><text xml:space="preserve" font-family="ArialMT,Arial" font-size="24.0" fill="#FFFFFF" transform="matrix(1.00, 0.00, -0.00, -1.00, 217.3, 313.8)">f</text><text xml:space="preserve" font-family="ArialMT,Arial" font-size="24.0" fill="#FFFFFF" transform="matrix(1.00, 0.00, -0.00, -1.00, 224.0, 313.8)">r</text><text xml:space="preserve" font-family="ArialMT,Arial" font-size="24.0" fill="#FFFFFF" transform="matrix(1.00, 0.00, -0.00, -1.00, 232.0, 313.8)">o</text><text xml:space="preserve" font-family="ArialMT,Arial" font-size="24.0" fill="#FFFFFF" transform="matrix(1.00, 0.00, -0.00, -1.00, 245.3, 313.8)">m</text><text xml:space="preserve" font-family="ArialMT,Arial" font-size="24.0" fill="#FFFFFF" transform="matrix(1.00, 0.00, -0.00, -1.00, 265.3, 313.8)"> </text><text xml:space="preserve" font-family="ArialMT,Arial" font-size="24.0" fill="#FFFFFF" transform="matrix(1.00, 0.00, -0.00, -1.00, 272.0, 313.8)">F</text><text xml:space="preserve" font-family="ArialMT,Arial" font-size="24.0" fill="#FFFFFF" transform="matrix(1.00, 0.00, -0.00, -1.00, 286.6, 313.8)">a</text><text xml:space="preserve" font-family="ArialMT,Arial" font-size="24.0" fill="#FFFFFF" transform="matrix(1.00, 0.00, -0.00, -1.00, 300.0, 313.8)">c</text><text xml:space="preserve" font-family="ArialMT,Arial" font-size="24.0" fill="#FFFFFF" transform="matrix(1.00, 0.00, -0.00, -1.00, 312.0, 313.8)">u</text><text xml:space="preserve" font-family="ArialMT,Arial" font-size="24.0" fill="#FFFFFF" transform="matrix(1.00, 0.00, -0.00, -1.00, 325.4, 313.8)">l</text><text xml:space="preserve" font-family="ArialMT,Arial" font-size="24.0" fill="#FFFFFF" transform="matrix(1.00, 0.00, -0.00, -1.00, 330.7, 313.8)">t</text><text xml:space="preserve" font-family="ArialMT,Arial" font-size="24.0" fill="#FFFFFF" transform="matrix(1.00, 0.00, -0.00, -1.00, 337.4, 313.8)">y</text><text xml:space="preserve" font-family="ArialMT,Arial" font-size="24.0" fill="#FFFFFF" transform="matrix(1.00, 0.00, -0.00, -1.00, 349.4, 313.8)"> </text><text xml:space="preserve" font-family="ArialMT,Arial" font-size="24.0" fill="#FFFFFF" transform="matrix(1.00, 0.00, -0.00, -1.00, 112.6, 257.8)">●</text><text xml:space="preserve" font-family="ArialMT,Arial" font-size="24.0" fill="#FFFFFF" transform="matrix(1.00, 0.00, -0.00, -1.00, 142.6, 257.8)">C</text><text xml:space="preserve" font-family="ArialMT,Arial" font-size="24.0" fill="#FFFFFF" transform="matrix(1.00, 0.00, -0.00, -1.00, 160.0, 257.8)">o</text><text xml:space="preserve" font-family="ArialMT,Arial" font-size="24.0" fill="#FFFFFF" transform="matrix(1.00, 0.00, -0.00, -1.00, 173.3, 257.8)">n</text><text xml:space="preserve" font-family="ArialMT,Arial" font-size="24.0" fill="#FFFFFF" transform="matrix(1.00, 0.00, -0.00, -1.00, 186.7, 257.8)">s</text><text xml:space="preserve" font-family="ArialMT,Arial" font-size="24.0" fill="#FFFFFF" transform="matrix(1.00, 0.00, -0.00, -1.00, 198.7, 257.8)">e</text><text xml:space="preserve" font-family="ArialMT,Arial" font-size="24.0" fill="#FFFFFF" transform="matrix(1.00, 0.00, -0.00, -1.00, 212.0, 257.8)">n</text><text xml:space="preserve" font-family="ArialMT,Arial" font-size="24.0" fill="#FFFFFF" transform="matrix(1.00, 0.00, -0.00, -1.00, 225.4, 257.8)">t</text><text xml:space="preserve" font-family="ArialMT,Arial" font-size="24.0" fill="#FFFFFF" transform="matrix(1.00, 0.00, -0.00, -1.00, 232.0, 257.8)"> </text><text xml:space="preserve" font-family="ArialMT,Arial" font-size="24.0" fill="#FFFFFF" transform="matrix(1.00, 0.00, -0.00, -1.00, 238.7, 257.8)">f</text><text xml:space="preserve" font-family="ArialMT,Arial" font-size="24.0" fill="#FFFFFF" transform="matrix(1.00, 0.00, -0.00, -1.00, 245.4, 257.8)">r</text><text xml:space="preserve" font-family="ArialMT,Arial" font-size="24.0" fill="#FFFFFF" transform="matrix(1.00, 0.00, -0.00, -1.00, 253.4, 257.8)">o</text><text xml:space="preserve" font-family="ArialMT,Arial" font-size="24.0" fill="#FFFFFF" transform="matrix(1.00, 0.00, -0.00, -1.00, 266.7, 257.8)">m</text><text xml:space="preserve" font-family="ArialMT,Arial" font-size="24.0" fill="#FFFFFF" transform="matrix(1.00, 0.00, -0.00, -1.00, 286.7, 257.8)"> </text><text xml:space="preserve" font-family="ArialMT,Arial" font-size="24.0" fill="#FFFFFF" transform="matrix(1.00, 0.00, -0.00, -1.00, 293.4, 257.8)">p</text><text xml:space="preserve" font-family="ArialMT,Arial" font-size="24.0" fill="#FFFFFF" transform="matrix(1.00, 0.00, -0.00, -1.00, 306.7, 257.8)">a</text><text xml:space="preserve" font-family="ArialMT,Arial" font-size="24.0" fill="#FFFFFF" transform="matrix(1.00, 0.00, -0.00, -1.00, 320.1, 257.8)">t</text><text xml:space="preserve" font-family="ArialMT,Arial" font-size="24.0" fill="#FFFFFF" transform="matrix(1.00, 0.00, -0.00, -1.00, 326.7, 257.8)">i</text><text xml:space="preserve" font-family="ArialMT,Arial" font-size="24.0" fill="#FFFFFF" transform="matrix(1.00, 0.00, -0.00, -1.00, 332.1, 257.8)">e</text><text xml:space="preserve" font-family="ArialMT,Arial" font-size="24.0" fill="#FFFFFF" transform="matrix(1.00, 0.00, -0.00, -1.00, 345.4, 257.8)">n</text><text xml:space="preserve" font-family="ArialMT,Arial" font-size="24.0" fill="#FFFFFF" transform="matrix(1.00, 0.00, -0.00, -1.00, 358.8, 257.8)">t</text><text xml:space="preserve" font-family="ArialMT,Arial" font-size="24.0" fill="#FFFFFF" transform="matrix(1.00, 0.00, -0.00, -1.00, 365.4, 257.8)">s</text><text xml:space="preserve" font-family="ArialMT,Arial" font-size="24.0" fill="#FFFFFF" transform="matrix(1.00, 0.00, -0.00, -1.00, 377.4, 257.8)">/</text><text xml:space="preserve" font-family="ArialMT,Arial" font-size="24.0" fill="#FFFFFF" transform="matrix(1.00, 0.00, -0.00, -1.00, 384.1, 257.8)">E</text><text xml:space="preserve" font-family="ArialMT,Arial" font-size="24.0" fill="#FFFFFF" transform="matrix(1.00, 0.00, -0.00, -1.00, 400.1, 257.8)">t</text><text xml:space="preserve" font-family="ArialMT,Arial" font-size="24.0" fill="#FFFFFF" transform="matrix(1.00, 0.00, -0.00, -1.00, 406.8, 257.8)">h</text><text xml:space="preserve" font-family="ArialMT,Arial" font-size="24.0" fill="#FFFFFF" transform="matrix(1.00, 0.00, -0.00, -1.00, 420.1, 257.8)">i</text><text xml:space="preserve" font-family="ArialMT,Arial" font-size="24.0" fill="#FFFFFF" transform="matrix(1.00, 0.00, -0.00, -1.00, 425.5, 257.8)">c</text><text xml:space="preserve" font-family="ArialMT,Arial" font-size="24.0" fill="#FFFFFF" transform="matrix(1.00, 0.00, -0.00, -1.00, 437.5, 257.8)">s</text><text xml:space="preserve" font-family="ArialMT,Arial" font-size="24.0" fill="#FFFFFF" transform="matrix(1.00, 0.00, -0.00, -1.00, 449.5, 257.8)"> </text><text xml:space="preserve" font-family="ArialMT,Arial" font-size="24.0" fill="#FFFFFF" transform="matrix(1.00, 0.00, -0.00, -1.00, 112.6, 201.8)">●</text><text xml:space="preserve" font-family="ArialMT,Arial" font-size="24.0" fill="#FFFFFF" transform="matrix(1.00, 0.00, -0.00, -1.00, 142.6, 201.8)">N</text><text xml:space="preserve" font-family="ArialMT,Arial" font-size="24.0" fill="#FFFFFF" transform="matrix(1.00, 0.00, -0.00, -1.00, 160.0, 201.8)">e</text><text xml:space="preserve" font-family="ArialMT,Arial" font-size="24.0" fill="#FFFFFF" transform="matrix(1.00, 0.00, -0.00, -1.00, 173.3, 201.8)">w</text><text xml:space="preserve" font-family="ArialMT,Arial" font-size="24.0" fill="#FFFFFF" transform="matrix(1.00, 0.00, -0.00, -1.00, 190.6, 201.8)"> </text><text xml:space="preserve" font-family="ArialMT,Arial" font-size="24.0" fill="#FFFFFF" transform="matrix(1.00, 0.00, -0.00, -1.00, 197.3, 201.8)">f</text><text xml:space="preserve" font-family="ArialMT,Arial" font-size="24.0" fill="#FFFFFF" transform="matrix(1.00, 0.00, -0.00, -1.00, 204.0, 201.8)">e</text><text xml:space="preserve" font-family="ArialMT,Arial" font-size="24.0" fill="#FFFFFF" transform="matrix(1.00, 0.00, -0.00, -1.00, 217.3, 201.8)">a</text><text xml:space="preserve" font-family="ArialMT,Arial" font-size="24.0" fill="#FFFFFF" transform="matrix(1.00, 0.00, -0.00, -1.00, 230.7, 201.8)">t</text><text xml:space="preserve" font-family="ArialMT,Arial" font-size="24.0" fill="#FFFFFF" transform="matrix(1.00, 0.00, -0.00, -1.00, 237.3, 201.8)">u</text><text xml:space="preserve" font-family="ArialMT,Arial" font-size="24.0" fill="#FFFFFF" transform="matrix(1.00, 0.00, -0.00, -1.00, 250.7, 201.8)">r</text><text xml:space="preserve" font-family="ArialMT,Arial" font-size="24.0" fill="#FFFFFF" transform="matrix(1.00, 0.00, -0.00, -1.00, 258.7, 201.8)">e</text><text xml:space="preserve" font-family="ArialMT,Arial" font-size="24.0" fill="#FFFFFF" transform="matrix(1.00, 0.00, -0.00, -1.00, 272.0, 201.8)">s</text><text xml:space="preserve" font-family="ArialMT,Arial" font-size="24.0" fill="#FFFFFF" transform="matrix(1.00, 0.00, -0.00, -1.00, 284.0, 201.8)">?</text><text xml:space="preserve" font-family="ArialMT,Arial" font-size="24.0" fill="#FFFFFF" transform="matrix(1.00, 0.00, -0.00, -1.00, 297.4, 201.8)"> </text><text xml:space="preserve" font-family="ArialMT,Arial" font-size="24.0" fill="#FFFFFF" transform="matrix(1.00, 0.00, -0.00, -1.00, 304.1, 201.8)">f</text><text xml:space="preserve" font-family="ArialMT,Arial" font-size="24.0" fill="#FFFFFF" transform="matrix(1.00, 0.00, -0.00, -1.00, 310.7, 201.8)">o</text><text xml:space="preserve" font-family="ArialMT,Arial" font-size="24.0" fill="#FFFFFF" transform="matrix(1.00, 0.00, -0.00, -1.00, 324.1, 201.8)">r</text><text xml:space="preserve" font-family="ArialMT,Arial" font-size="24.0" fill="#FFFFFF" transform="matrix(1.00, 0.00, -0.00, -1.00, 332.1, 201.8)"> </text><text xml:space="preserve" font-family="ArialMT,Arial" font-size="24.0" fill="#FFFFFF" transform="matrix(1.00, 0.00, -0.00, -1.00, 338.7, 201.8)">t</text><text xml:space="preserve" font-family="ArialMT,Arial" font-size="24.0" fill="#FFFFFF" transform="matrix(1.00, 0.00, -0.00, -1.00, 345.4, 201.8)">h</text><text xml:space="preserve" font-family="ArialMT,Arial" font-size="24.0" fill="#FFFFFF" transform="matrix(1.00, 0.00, -0.00, -1.00, 358.7, 201.8)">e</text><text xml:space="preserve" font-family="ArialMT,Arial" font-size="24.0" fill="#FFFFFF" transform="matrix(1.00, 0.00, -0.00, -1.00, 372.1, 201.8)"> </text><text xml:space="preserve" font-family="ArialMT,Arial" font-size="24.0" fill="#FFFFFF" transform="matrix(1.00, 0.00, -0.00, -1.00, 378.8, 201.8)">B</text><text xml:space="preserve" font-family="ArialMT,Arial" font-size="24.0" fill="#FFFFFF" transform="matrix(1.00, 0.00, -0.00, -1.00, 394.8, 201.8)">I</text><text xml:space="preserve" font-family="ArialMT,Arial" font-size="24.0" fill="#FFFFFF" transform="matrix(1.00, 0.00, -0.00, -1.00, 401.4, 201.8)">C</text><text xml:space="preserve" font-family="ArialMT,Arial" font-size="24.0" fill="#FFFFFF" transform="matrix(1.00, 0.00, -0.00, -1.00, 418.8, 201.8)"> </text><text xml:space="preserve" font-family="ArialMT,Arial" font-size="24.0" fill="#FFFFFF" transform="matrix(1.00, 0.00, -0.00, -1.00, 425.4, 201.8)">i</text><text xml:space="preserve" font-family="ArialMT,Arial" font-size="24.0" fill="#FFFFFF" transform="matrix(1.00, 0.00, -0.00, -1.00, 430.8, 201.8)">n</text><text xml:space="preserve" font-family="ArialMT,Arial" font-size="24.0" fill="#FFFFFF" transform="matrix(1.00, 0.00, -0.00, -1.00, 444.1, 201.8)">s</text><text xml:space="preserve" font-family="ArialMT,Arial" font-size="24.0" fill="#FFFFFF" transform="matrix(1.00, 0.00, -0.00, -1.00, 456.1, 201.8)">t</text><text xml:space="preserve" font-family="ArialMT,Arial" font-size="24.0" fill="#FFFFFF" transform="matrix(1.00, 0.00, -0.00, -1.00, 462.8, 201.8)">a</text><text xml:space="preserve" font-family="ArialMT,Arial" font-size="24.0" fill="#FFFFFF" transform="matrix(1.00, 0.00, -0.00, -1.00, 476.1, 201.8)">n</text><text xml:space="preserve" font-family="ArialMT,Arial" font-size="24.0" fill="#FFFFFF" transform="matrix(1.00, 0.00, -0.00, -1.00, 489.5, 201.8)">c</text><text xml:space="preserve" font-family="ArialMT,Arial" font-size="24.0" fill="#FFFFFF" transform="matrix(1.00, 0.00, -0.00, -1.00, 501.5, 201.8)">e</text><text xml:space="preserve" font-family="ArialMT,Arial" font-size="24.0" fill="#FFFFFF" transform="matrix(1.00, 0.00, -0.00, -1.00, 514.8, 201.8)">?</text><text xml:space="preserve" font-family="ArialMT,Arial" font-size="24.0" fill="#FFFFFF" transform="matrix(1.00, 0.00, -0.00, -1.00, 528.2, 201.8)"> </text></g></svg>