<?xml version="1.0" encoding="UTF-8" standalone="no"?><svg xmlns="http://www.w3.org/2000/svg" xmlns:xlink="http://www.w3.org/1999/xlink" clip-rule="evenodd" stroke-miterlimit="10" viewBox="0 0 800 600"><desc>SVG generated by Keynote</desc><defs></defs><g transform="matrix(1.00, 0.00, -0.00, -1.00, 0.0, 600.0)"><g><clipPath id="clip0x7fa2bf3706f0"><path d="M 0.0 600.0 L 800.0 600.0 L 800.0 0.0 L 0.0 0.0 Z M 0.0 600.0 "></path></clipPath><g clip-path="url(#clip0x7fa2bf3706f0)"><image xlink:href="../../C4DDE765-8938-4467-BDB7-430C61022F9E/assets/CA73AF76AA37EA4881A8CFF12D65F767.jpeg" width="640.00" height="400.00" transform="matrix(1.25, 0.00, -0.00, -1.50, 0.0, 600.0)"></image></g></g><image xlink:href="269D4F656FA5719515EE38E22E2AA2DE.jpeg" width="2071.00" height="1536.00" transform="matrix(0.39, 0.00, -0.00, -0.39, 0.0, 600.0)"></image><text xml:space="preserve" font-family="Arial-BoldMT,Arial" font-weight="bold" font-size="24.0" fill="#5A1B00" transform="matrix(1.00, 0.00, -0.00, -1.00, 246.6, 57.5)">F</text><text xml:space="preserve" font-family="Arial-BoldMT,Arial" font-weight="bold" font-size="24.0" fill="#5A1B00" transform="matrix(1.00, 0.00, -0.00, -1.00, 261.3, 57.5)">u</text><text xml:space="preserve" font-family="Arial-BoldMT,Arial" font-weight="bold" font-size="24.0" fill="#5A1B00" transform="matrix(1.00, 0.00, -0.00, -1.00, 275.9, 57.5)">n</text><text xml:space="preserve" font-family="Arial-BoldMT,Arial" font-weight="bold" font-size="24.0" fill="#5A1B00" transform="matrix(1.00, 0.00, -0.00, -1.00, 290.6, 57.5)">c</text><text xml:space="preserve" font-family="Arial-BoldMT,Arial" font-weight="bold" font-size="24.0" fill="#5A1B00" transform="matrix(1.00, 0.00, -0.00, -1.00, 304.0, 57.5)">t</text><text xml:space="preserve" font-family="Arial-BoldMT,Arial" font-weight="bold" font-size="24.0" fill="#5A1B00" transform="matrix(1.00, 0.00, -0.00, -1.00, 311.9, 57.5)">i</text><text xml:space="preserve" font-family="Arial-BoldMT,Arial" font-weight="bold" font-size="24.0" fill="#5A1B00" transform="matrix(1.00, 0.00, -0.00, -1.00, 318.6, 57.5)">o</text><text xml:space="preserve" font-family="Arial-BoldMT,Arial" font-weight="bold" font-size="24.0" fill="#5A1B00" transform="matrix(1.00, 0.00, -0.00, -1.00, 333.3, 57.5)">n</text><text xml:space="preserve" font-family="Arial-BoldMT,Arial" font-weight="bold" font-size="24.0" fill="#5A1B00" transform="matrix(1.00, 0.00, -0.00, -1.00, 347.9, 57.5)">a</text><text xml:space="preserve" font-family="Arial-BoldMT,Arial" font-weight="bold" font-size="24.0" fill="#5A1B00" transform="matrix(1.00, 0.00, -0.00, -1.00, 361.3, 57.5)">l</text><text xml:space="preserve" font-family="Arial-BoldMT,Arial" font-weight="bold" font-size="24.0" fill="#5A1B00" transform="matrix(1.00, 0.00, -0.00, -1.00, 367.9, 57.5)"> </text><text xml:space="preserve" font-family="Arial-BoldMT,Arial" font-weight="bold" font-size="24.0" fill="#5A1B00" transform="matrix(1.00, 0.00, -0.00, -1.00, 374.6, 57.5)">M</text><text xml:space="preserve" font-family="Arial-BoldMT,Arial" font-weight="bold" font-size="24.0" fill="#5A1B00" transform="matrix(1.00, 0.00, -0.00, -1.00, 394.6, 57.5)">R</text><text xml:space="preserve" font-family="Arial-BoldMT,Arial" font-weight="bold" font-size="24.0" fill="#5A1B00" transform="matrix(1.00, 0.00, -0.00, -1.00, 411.9, 57.5)">I</text><text xml:space="preserve" font-family="Arial-BoldMT,Arial" font-weight="bold" font-size="24.0" fill="#5A1B00" transform="matrix(1.00, 0.00, -0.00, -1.00, 418.6, 57.5)"> </text><text xml:space="preserve" font-family="Arial-BoldMT,Arial" font-weight="bold" font-size="24.0" fill="#5A1B00" transform="matrix(1.00, 0.00, -0.00, -1.00, 425.3, 57.5)">P</text><text xml:space="preserve" font-family="Arial-BoldMT,Arial" font-weight="bold" font-size="24.0" fill="#5A1B00" transform="matrix(1.00, 0.00, -0.00, -1.00, 441.3, 57.5)">r</text><text xml:space="preserve" font-family="Arial-BoldMT,Arial" font-weight="bold" font-size="24.0" fill="#5A1B00" transform="matrix(1.00, 0.00, -0.00, -1.00, 450.6, 57.5)">o</text><text xml:space="preserve" font-family="Arial-BoldMT,Arial" font-weight="bold" font-size="24.0" fill="#5A1B00" transform="matrix(1.00, 0.00, -0.00, -1.00, 465.3, 57.5)">c</text><text xml:space="preserve" font-family="Arial-BoldMT,Arial" font-weight="bold" font-size="24.0" fill="#5A1B00" transform="matrix(1.00, 0.00, -0.00, -1.00, 478.6, 57.5)">e</text><text xml:space="preserve" font-family="Arial-BoldMT,Arial" font-weight="bold" font-size="24.0" fill="#5A1B00" transform="matrix(1.00, 0.00, -0.00, -1.00, 492.0, 57.5)">s</text><text xml:space="preserve" font-family="Arial-BoldMT,Arial" font-weight="bold" font-size="24.0" fill="#5A1B00" transform="matrix(1.00, 0.00, -0.00, -1.00, 505.3, 57.5)">s</text><text xml:space="preserve" font-family="Arial-BoldMT,Arial" font-weight="bold" font-size="24.0" fill="#5A1B00" transform="matrix(1.00, 0.00, -0.00, -1.00, 518.7, 57.5)">i</text><text xml:space="preserve" font-family="Arial-BoldMT,Arial" font-weight="bold" font-size="24.0" fill="#5A1B00" transform="matrix(1.00, 0.00, -0.00, -1.00, 525.3, 57.5)">n</text><text xml:space="preserve" font-family="ArialMT,Arial" font-size="24.0" fill="#5A1B00" transform="matrix(1.00, 0.00, -0.00, -1.00, 540.0, 57.5)">g</text><text xml:space="preserve" font-family="Arial-BoldMT,Arial" font-weight="bold" font-size="24.0" fill="#5A1B00" transform="matrix(1.00, 0.00, -0.00, -1.00, 553.4, 57.5)"> </text><text xml:space="preserve" font-family="Arial-BoldMT,Arial" font-weight="bold" font-size="24.0" fill="#5A1B00" transform="matrix(1.00, 0.00, -0.00, -1.00, 370.7, 24.1)">N</text><text xml:space="preserve" font-family="Arial-BoldMT,Arial" font-weight="bold" font-size="24.0" fill="#5A1B00" transform="matrix(1.00, 0.00, -0.00, -1.00, 388.0, 24.1)">I</text><text xml:space="preserve" font-family="Arial-BoldMT,Arial" font-weight="bold" font-size="24.0" fill="#5A1B00" transform="matrix(1.00, 0.00, -0.00, -1.00, 394.7, 24.1)">A</text><text xml:space="preserve" font-family="Arial-BoldMT,Arial" font-weight="bold" font-size="24.0" fill="#5A1B00" transform="matrix(1.00, 0.00, -0.00, -1.00, 412.0, 24.1)">K</text></g></svg>