<?xml version="1.0" encoding="UTF-8" standalone="no"?><svg xmlns="http://www.w3.org/2000/svg" xmlns:xlink="http://www.w3.org/1999/xlink" clip-rule="evenodd" stroke-miterlimit="10" viewBox="0 0 800 600"><desc>SVG generated by Keynote</desc><defs></defs><g transform="matrix(1.00, 0.00, -0.00, -1.00, 0.0, 600.0)"><g><clipPath id="clip0x7fa2b9cca050"><path d="M 0.0 600.0 L 800.0 600.0 L 800.0 0.0 L 0.0 0.0 Z M 0.0 600.0 "></path></clipPath><g clip-path="url(#clip0x7fa2b9cca050)"><image xlink:href="../../C4DDE765-8938-4467-BDB7-430C61022F9E/assets/CA73AF76AA37EA4881A8CFF12D65F767.jpeg" width="640.00" height="400.00" transform="matrix(1.25, 0.00, -0.00, -1.50, 0.0, 600.0)"></image></g></g><text xml:space="preserve" font-family="Arial-BoldMT,Arial" font-weight="bold" font-size="36.0" fill="#1154CC" transform="matrix(1.00, 0.00, -0.00, -1.00, 324.9, 563.8)">B</text><text xml:space="preserve" font-family="Arial-BoldMT,Arial" font-weight="bold" font-size="36.0" fill="#1154CC" transform="matrix(1.00, 0.00, -0.00, -1.00, 350.9, 563.8)">i</text><text xml:space="preserve" font-family="Arial-BoldMT,Arial" font-weight="bold" font-size="36.0" fill="#1154CC" transform="matrix(1.00, 0.00, -0.00, -1.00, 360.9, 563.8)">g</text><text xml:space="preserve" font-family="Arial-BoldMT,Arial" font-weight="bold" font-size="36.0" fill="#1154CC" transform="matrix(1.00, 0.00, -0.00, -1.00, 382.9, 563.8)">B</text><text xml:space="preserve" font-family="Arial-BoldMT,Arial" font-weight="bold" font-size="36.0" fill="#1154CC" transform="matrix(1.00, 0.00, -0.00, -1.00, 408.9, 563.8)">r</text><text xml:space="preserve" font-family="Arial-BoldMT,Arial" font-weight="bold" font-size="36.0" fill="#1154CC" transform="matrix(1.00, 0.00, -0.00, -1.00, 422.9, 563.8)">a</text><text xml:space="preserve" font-family="Arial-BoldMT,Arial" font-weight="bold" font-size="36.0" fill="#1154CC" transform="matrix(1.00, 0.00, -0.00, -1.00, 442.9, 563.8)">i</text><text xml:space="preserve" font-family="Arial-BoldMT,Arial" font-weight="bold" font-size="36.0" fill="#1154CC" transform="matrix(1.00, 0.00, -0.00, -1.00, 452.9, 563.8)">n</text><g><clipPath id="clip0x7fa2bc413970"><path d="M 323.9 557.1 L 474.9 557.1 L 474.9 562.9 L 323.9 562.9 Z M 323.9 557.1 "></path></clipPath><g clip-path="url(#clip0x7fa2bc413970)"><path d="M 11.1 40.0 L 161.1 40.0 " fill="none" stroke="#1154CC" stroke-width="3.78" transform="matrix(1.00, 0.00, 0.00, -1.00, 313.7, 600.0)"></path></g></g><image xlink:href="../../FFD05441-F5BC-4136-BD38-54A0842EE7B6/assets/DCF31A2117997DA02C657512FE7CFCF4.png" width="614.00" height="790.00" transform="matrix(0.63, 0.00, -0.00, -0.69, 0.0, 543.1)"></image><image xlink:href="../../FFD05441-F5BC-4136-BD38-54A0842EE7B6/assets/C90B6BE155C8365F74E80A96B3842895.png" width="1300.00" height="1183.00" transform="matrix(0.32, 0.00, -0.00, -0.46, 385.6, 543.1)"></image></g></svg>