<?xml version="1.0" encoding="UTF-8" standalone="no"?><svg xmlns="http://www.w3.org/2000/svg" xmlns:xlink="http://www.w3.org/1999/xlink" clip-rule="evenodd" stroke-miterlimit="10" viewBox="0 0 800 600"><desc>SVG generated by Keynote</desc><defs></defs><g transform="matrix(1.00, 0.00, -0.00, -1.00, 0.0, 600.0)"><g><clipPath id="clip0x7fa2bebdb380"><path d="M 0.0 600.0 L 800.0 600.0 L 800.0 0.0 L 0.0 0.0 Z M 0.0 600.0 "></path></clipPath><g clip-path="url(#clip0x7fa2bebdb380)"><image xlink:href="../../C4DDE765-8938-4467-BDB7-430C61022F9E/assets/CA73AF76AA37EA4881A8CFF12D65F767.jpeg" width="640.00" height="400.00" transform="matrix(1.25, 0.00, -0.00, -1.50, 0.0, 600.0)"></image></g></g><text xml:space="preserve" font-family="ArialMT,Arial" font-size="30.0" fill="#660000" transform="matrix(1.00, 0.00, -0.00, -1.00, 9.7, 530.1)">L</text><text xml:space="preserve" font-family="ArialMT,Arial" font-size="30.0" fill="#FFFFFF" transform="matrix(1.00, 0.00, -0.00, -1.00, 26.3, 530.1)">o</text><text xml:space="preserve" font-family="ArialMT,Arial" font-size="30.0" fill="#FFFFFF" transform="matrix(1.00, 0.00, -0.00, -1.00, 43.0, 530.1)">n</text><text xml:space="preserve" font-family="ArialMT,Arial" font-size="30.0" fill="#FFFFFF" transform="matrix(1.00, 0.00, -0.00, -1.00, 59.7, 530.1)">g</text><text xml:space="preserve" font-family="ArialMT,Arial" font-size="30.0" fill="#FFFFFF" transform="matrix(1.00, 0.00, -0.00, -1.00, 76.4, 530.1)">i</text><text xml:space="preserve" font-family="ArialMT,Arial" font-size="30.0" fill="#FFFFFF" transform="matrix(1.00, 0.00, -0.00, -1.00, 83.1, 530.1)">t</text><text xml:space="preserve" font-family="ArialMT,Arial" font-size="30.0" fill="#FFFFFF" transform="matrix(1.00, 0.00, -0.00, -1.00, 91.4, 530.1)">u</text><text xml:space="preserve" font-family="ArialMT,Arial" font-size="30.0" fill="#FFFFFF" transform="matrix(1.00, 0.00, -0.00, -1.00, 108.1, 530.1)">d</text><text xml:space="preserve" font-family="ArialMT,Arial" font-size="30.0" fill="#FFFFFF" transform="matrix(1.00, 0.00, -0.00, -1.00, 124.8, 530.1)">i</text><text xml:space="preserve" font-family="ArialMT,Arial" font-size="30.0" fill="#FFFFFF" transform="matrix(1.00, 0.00, -0.00, -1.00, 131.5, 530.1)">n</text><text xml:space="preserve" font-family="ArialMT,Arial" font-size="30.0" fill="#FFFFFF" transform="matrix(1.00, 0.00, -0.00, -1.00, 148.2, 530.1)">a</text><text xml:space="preserve" font-family="ArialMT,Arial" font-size="30.0" fill="#FFFFFF" transform="matrix(1.00, 0.00, -0.00, -1.00, 164.9, 530.1)">l</text><text xml:space="preserve" font-family="ArialMT,Arial" font-size="14.0" fill="#000000" transform="matrix(1.00, 0.00, -0.00, -1.00, 171.5, 530.1)"> </text><text xml:space="preserve" font-family="ArialMT,Arial" font-size="30.0" fill="#660000" transform="matrix(1.00, 0.00, -0.00, -1.00, 9.7, 496.1)">O</text><text xml:space="preserve" font-family="ArialMT,Arial" font-size="30.0" fill="#FFFFFF" transform="matrix(1.00, 0.00, -0.00, -1.00, 33.0, 496.1)">n</text><text xml:space="preserve" font-family="ArialMT,Arial" font-size="30.0" fill="#FFFFFF" transform="matrix(1.00, 0.00, -0.00, -1.00, 49.7, 496.1)">l</text><text xml:space="preserve" font-family="ArialMT,Arial" font-size="30.0" fill="#FFFFFF" transform="matrix(1.00, 0.00, -0.00, -1.00, 56.4, 496.1)">i</text><text xml:space="preserve" font-family="ArialMT,Arial" font-size="30.0" fill="#FFFFFF" transform="matrix(1.00, 0.00, -0.00, -1.00, 63.0, 496.1)">n</text><text xml:space="preserve" font-family="ArialMT,Arial" font-size="30.0" fill="#FFFFFF" transform="matrix(1.00, 0.00, -0.00, -1.00, 79.7, 496.1)">e</text><text xml:space="preserve" font-family="ArialMT,Arial" font-size="30.0" fill="#660000" transform="matrix(1.00, 0.00, -0.00, -1.00, 96.4, 496.1)"> </text><text xml:space="preserve" font-family="ArialMT,Arial" font-size="14.0" fill="#000000" transform="matrix(1.00, 0.00, -0.00, -1.00, 104.7, 496.1)"> </text><text xml:space="preserve" font-family="ArialMT,Arial" font-size="30.0" fill="#660000" transform="matrix(1.00, 0.00, -0.00, -1.00, 9.7, 462.1)">R</text><text xml:space="preserve" font-family="ArialMT,Arial" font-size="30.0" fill="#FFFFFF" transform="matrix(1.00, 0.00, -0.00, -1.00, 31.3, 462.1)">e</text><text xml:space="preserve" font-family="ArialMT,Arial" font-size="30.0" fill="#FFFFFF" transform="matrix(1.00, 0.00, -0.00, -1.00, 48.0, 462.1)">s</text><text xml:space="preserve" font-family="ArialMT,Arial" font-size="30.0" fill="#FFFFFF" transform="matrix(1.00, 0.00, -0.00, -1.00, 63.0, 462.1)">e</text><text xml:space="preserve" font-family="ArialMT,Arial" font-size="30.0" fill="#FFFFFF" transform="matrix(1.00, 0.00, -0.00, -1.00, 79.7, 462.1)">a</text><text xml:space="preserve" font-family="ArialMT,Arial" font-size="30.0" fill="#FFFFFF" transform="matrix(1.00, 0.00, -0.00, -1.00, 96.4, 462.1)">r</text><text xml:space="preserve" font-family="ArialMT,Arial" font-size="30.0" fill="#FFFFFF" transform="matrix(1.00, 0.00, -0.00, -1.00, 106.4, 462.1)">c</text><text xml:space="preserve" font-family="ArialMT,Arial" font-size="30.0" fill="#FFFFFF" transform="matrix(1.00, 0.00, -0.00, -1.00, 121.4, 462.1)">h</text><text xml:space="preserve" font-family="ArialMT,Arial" font-size="30.0" fill="#FFFFFF" transform="matrix(1.00, 0.00, -0.00, -1.00, 138.1, 462.1)"> </text><text xml:space="preserve" font-family="ArialMT,Arial" font-size="30.0" fill="#FFFFFF" transform="matrix(1.00, 0.00, -0.00, -1.00, 146.4, 462.1)">&amp;</text><text xml:space="preserve" font-family="ArialMT,Arial" font-size="30.0" fill="#FFFFFF" transform="matrix(1.00, 0.00, -0.00, -1.00, 166.4, 462.1)"> </text><text xml:space="preserve" font-family="ArialMT,Arial" font-size="14.0" fill="#000000" transform="matrix(1.00, 0.00, -0.00, -1.00, 174.7, 462.1)"> </text><text xml:space="preserve" font-family="ArialMT,Arial" font-size="30.0" fill="#660000" transform="matrix(1.00, 0.00, -0.00, -1.00, 9.7, 428.1)">I</text><text xml:space="preserve" font-family="ArialMT,Arial" font-size="30.0" fill="#FFFFFF" transform="matrix(1.00, 0.00, -0.00, -1.00, 18.0, 428.1)">m</text><text xml:space="preserve" font-family="ArialMT,Arial" font-size="30.0" fill="#FFFFFF" transform="matrix(1.00, 0.00, -0.00, -1.00, 43.0, 428.1)">a</text><text xml:space="preserve" font-family="ArialMT,Arial" font-size="30.0" fill="#FFFFFF" transform="matrix(1.00, 0.00, -0.00, -1.00, 59.7, 428.1)">g</text><text xml:space="preserve" font-family="ArialMT,Arial" font-size="30.0" fill="#FFFFFF" transform="matrix(1.00, 0.00, -0.00, -1.00, 76.4, 428.1)">i</text><text xml:space="preserve" font-family="ArialMT,Arial" font-size="30.0" fill="#FFFFFF" transform="matrix(1.00, 0.00, -0.00, -1.00, 83.0, 428.1)">n</text><text xml:space="preserve" font-family="ArialMT,Arial" font-size="30.0" fill="#FFFFFF" transform="matrix(1.00, 0.00, -0.00, -1.00, 99.7, 428.1)">g</text><text xml:space="preserve" font-family="ArialMT,Arial" font-size="30.0" fill="#FFFFFF" transform="matrix(1.00, 0.00, -0.00, -1.00, 116.4, 428.1)"> </text><text xml:space="preserve" font-family="ArialMT,Arial" font-size="14.0" fill="#000000" transform="matrix(1.00, 0.00, -0.00, -1.00, 124.7, 428.1)"> </text><text xml:space="preserve" font-family="Arial-ItalicMT,Arial" font-style="italic" font-size="30.0" fill="#660000" transform="matrix(1.00, 0.00, -0.00, -1.00, 9.7, 394.1)">S</text><text xml:space="preserve" font-family="Arial-ItalicMT,Arial" font-style="italic" font-size="30.0" fill="#FFFFFF" transform="matrix(1.00, 0.00, -0.00, -1.00, 29.7, 394.1)">y</text><text xml:space="preserve" font-family="Arial-ItalicMT,Arial" font-style="italic" font-size="30.0" fill="#FFFFFF" transform="matrix(1.00, 0.00, -0.00, -1.00, 44.7, 394.1)">s</text><text xml:space="preserve" font-family="Arial-ItalicMT,Arial" font-style="italic" font-size="30.0" fill="#FFFFFF" transform="matrix(1.00, 0.00, -0.00, -1.00, 59.7, 394.1)">t</text><text xml:space="preserve" font-family="Arial-ItalicMT,Arial" font-style="italic" font-size="30.0" fill="#FFFFFF" transform="matrix(1.00, 0.00, -0.00, -1.00, 68.0, 394.1)">e</text><text xml:space="preserve" font-family="Arial-ItalicMT,Arial" font-style="italic" font-size="30.0" fill="#FFFFFF" transform="matrix(1.00, 0.00, -0.00, -1.00, 84.7, 394.1)">m</text><text xml:space="preserve" font-family="ArialMT,Arial" font-size="30.0" fill="#FFFFFF" transform="matrix(1.00, 0.00, -0.00, -1.00, 109.7, 394.1)"> </text><text xml:space="preserve" font-family="ArialMT,Arial" font-size="14.0" fill="#000000" transform="matrix(1.00, 0.00, -0.00, -1.00, 118.0, 394.1)"> </text><text xml:space="preserve" font-family="ArialMT,Arial" font-size="18.0" fill="#FFFFFF" transform="matrix(1.00, 0.00, -0.00, -1.00, 9.7, 342.2)">“</text><text xml:space="preserve" font-family="ArialMT,Arial" font-size="18.0" fill="#FFFFFF" transform="matrix(1.00, 0.00, -0.00, -1.00, 15.7, 342.2)">.</text><text xml:space="preserve" font-family="ArialMT,Arial" font-size="18.0" fill="#FFFFFF" transform="matrix(1.00, 0.00, -0.00, -1.00, 20.7, 342.2)">.</text><text xml:space="preserve" font-family="ArialMT,Arial" font-size="18.0" fill="#FFFFFF" transform="matrix(1.00, 0.00, -0.00, -1.00, 25.6, 342.2)">.</text><text xml:space="preserve" font-family="ArialMT,Arial" font-size="18.0" fill="#FFFFFF" transform="matrix(1.00, 0.00, -0.00, -1.00, 30.6, 342.2)">i</text><text xml:space="preserve" font-family="ArialMT,Arial" font-size="18.0" fill="#FFFFFF" transform="matrix(1.00, 0.00, -0.00, -1.00, 34.6, 342.2)">s</text><text xml:space="preserve" font-family="ArialMT,Arial" font-size="18.0" fill="#FFFFFF" transform="matrix(1.00, 0.00, -0.00, -1.00, 43.6, 342.2)"> </text><text xml:space="preserve" font-family="ArialMT,Arial" font-size="18.0" fill="#FFFFFF" transform="matrix(1.00, 0.00, -0.00, -1.00, 48.6, 342.2)">a</text><text xml:space="preserve" font-family="ArialMT,Arial" font-size="18.0" fill="#FFFFFF" transform="matrix(1.00, 0.00, -0.00, -1.00, 58.7, 342.2)"> </text><text xml:space="preserve" font-family="ArialMT,Arial" font-size="18.0" fill="#FFFFFF" transform="matrix(1.00, 0.00, -0.00, -1.00, 63.7, 342.2)">m</text><text xml:space="preserve" font-family="ArialMT,Arial" font-size="18.0" fill="#FFFFFF" transform="matrix(1.00, 0.00, -0.00, -1.00, 78.7, 342.2)">o</text><text xml:space="preserve" font-family="ArialMT,Arial" font-size="18.0" fill="#FFFFFF" transform="matrix(1.00, 0.00, -0.00, -1.00, 88.7, 342.2)">d</text><text xml:space="preserve" font-family="ArialMT,Arial" font-size="18.0" fill="#FFFFFF" transform="matrix(1.00, 0.00, -0.00, -1.00, 98.7, 342.2)">u</text><text xml:space="preserve" font-family="ArialMT,Arial" font-size="18.0" fill="#FFFFFF" transform="matrix(1.00, 0.00, -0.00, -1.00, 108.7, 342.2)">l</text><text xml:space="preserve" font-family="ArialMT,Arial" font-size="18.0" fill="#FFFFFF" transform="matrix(1.00, 0.00, -0.00, -1.00, 112.7, 342.2)">a</text><text xml:space="preserve" font-family="ArialMT,Arial" font-size="18.0" fill="#FFFFFF" transform="matrix(1.00, 0.00, -0.00, -1.00, 122.7, 342.2)">r</text><text xml:space="preserve" font-family="ArialMT,Arial" font-size="18.0" fill="#FFFFFF" transform="matrix(1.00, 0.00, -0.00, -1.00, 128.7, 342.2)"> </text><text xml:space="preserve" font-family="ArialMT,Arial" font-size="18.0" fill="#FFFFFF" transform="matrix(1.00, 0.00, -0.00, -1.00, 133.7, 342.2)">a</text><text xml:space="preserve" font-family="ArialMT,Arial" font-size="18.0" fill="#FFFFFF" transform="matrix(1.00, 0.00, -0.00, -1.00, 143.7, 342.2)">n</text><text xml:space="preserve" font-family="ArialMT,Arial" font-size="18.0" fill="#FFFFFF" transform="matrix(1.00, 0.00, -0.00, -1.00, 153.7, 342.2)">d</text><text xml:space="preserve" font-family="ArialMT,Arial" font-size="18.0" fill="#FFFFFF" transform="matrix(1.00, 0.00, -0.00, -1.00, 163.7, 342.2)"> </text><text xml:space="preserve" font-family="ArialMT,Arial" font-size="18.0" fill="#FFFFFF" transform="matrix(1.00, 0.00, -0.00, -1.00, 168.7, 342.2)">e</text><text xml:space="preserve" font-family="ArialMT,Arial" font-size="18.0" fill="#FFFFFF" transform="matrix(1.00, 0.00, -0.00, -1.00, 178.8, 342.2)">x</text><text xml:space="preserve" font-family="ArialMT,Arial" font-size="18.0" fill="#FFFFFF" transform="matrix(1.00, 0.00, -0.00, -1.00, 187.8, 342.2)">t</text><text xml:space="preserve" font-family="ArialMT,Arial" font-size="18.0" fill="#FFFFFF" transform="matrix(1.00, 0.00, -0.00, -1.00, 192.8, 342.2)">e</text><text xml:space="preserve" font-family="ArialMT,Arial" font-size="18.0" fill="#FFFFFF" transform="matrix(1.00, 0.00, -0.00, -1.00, 202.8, 342.2)">n</text><text xml:space="preserve" font-family="ArialMT,Arial" font-size="18.0" fill="#FFFFFF" transform="matrix(1.00, 0.00, -0.00, -1.00, 212.8, 342.2)">s</text><text xml:space="preserve" font-family="ArialMT,Arial" font-size="18.0" fill="#FFFFFF" transform="matrix(1.00, 0.00, -0.00, -1.00, 221.8, 342.2)">i</text><text xml:space="preserve" font-family="ArialMT,Arial" font-size="18.0" fill="#FFFFFF" transform="matrix(1.00, 0.00, -0.00, -1.00, 225.8, 342.2)">b</text><text xml:space="preserve" font-family="ArialMT,Arial" font-size="18.0" fill="#FFFFFF" transform="matrix(1.00, 0.00, -0.00, -1.00, 235.8, 342.2)">l</text><text xml:space="preserve" font-family="ArialMT,Arial" font-size="18.0" fill="#FFFFFF" transform="matrix(1.00, 0.00, -0.00, -1.00, 239.8, 342.2)">e</text><text xml:space="preserve" font-family="ArialMT,Arial" font-size="18.0" fill="#FFFFFF" transform="matrix(1.00, 0.00, -0.00, -1.00, 249.8, 342.2)"> </text><text xml:space="preserve" font-family="ArialMT,Arial" font-size="18.0" fill="#FFFFFF" transform="matrix(1.00, 0.00, -0.00, -1.00, 9.7, 321.2)">w</text><text xml:space="preserve" font-family="ArialMT,Arial" font-size="18.0" fill="#FFFFFF" transform="matrix(1.00, 0.00, -0.00, -1.00, 22.7, 321.2)">e</text><text xml:space="preserve" font-family="ArialMT,Arial" font-size="18.0" fill="#FFFFFF" transform="matrix(1.00, 0.00, -0.00, -1.00, 32.7, 321.2)">b</text><text xml:space="preserve" font-family="ArialMT,Arial" font-size="18.0" fill="#FFFFFF" transform="matrix(1.00, 0.00, -0.00, -1.00, 42.7, 321.2)">-</text><text xml:space="preserve" font-family="ArialMT,Arial" font-size="18.0" fill="#FFFFFF" transform="matrix(1.00, 0.00, -0.00, -1.00, 48.7, 321.2)">b</text><text xml:space="preserve" font-family="ArialMT,Arial" font-size="18.0" fill="#FFFFFF" transform="matrix(1.00, 0.00, -0.00, -1.00, 58.7, 321.2)">a</text><text xml:space="preserve" font-family="ArialMT,Arial" font-size="18.0" fill="#FFFFFF" transform="matrix(1.00, 0.00, -0.00, -1.00, 68.7, 321.2)">s</text><text xml:space="preserve" font-family="ArialMT,Arial" font-size="18.0" fill="#FFFFFF" transform="matrix(1.00, 0.00, -0.00, -1.00, 77.7, 321.2)">e</text><text xml:space="preserve" font-family="ArialMT,Arial" font-size="18.0" fill="#FFFFFF" transform="matrix(1.00, 0.00, -0.00, -1.00, 87.7, 321.2)">d</text><text xml:space="preserve" font-family="ArialMT,Arial" font-size="18.0" fill="#FFFFFF" transform="matrix(1.00, 0.00, -0.00, -1.00, 97.7, 321.2)"> </text><text xml:space="preserve" font-family="ArialMT,Arial" font-size="18.0" fill="#FFFFFF" transform="matrix(1.00, 0.00, -0.00, -1.00, 102.7, 321.2)">d</text><text xml:space="preserve" font-family="ArialMT,Arial" font-size="18.0" fill="#FFFFFF" transform="matrix(1.00, 0.00, -0.00, -1.00, 112.8, 321.2)">a</text><text xml:space="preserve" font-family="ArialMT,Arial" font-size="18.0" fill="#FFFFFF" transform="matrix(1.00, 0.00, -0.00, -1.00, 122.8, 321.2)">t</text><text xml:space="preserve" font-family="ArialMT,Arial" font-size="18.0" fill="#FFFFFF" transform="matrix(1.00, 0.00, -0.00, -1.00, 127.8, 321.2)">a</text><text xml:space="preserve" font-family="ArialMT,Arial" font-size="18.0" fill="#FFFFFF" transform="matrix(1.00, 0.00, -0.00, -1.00, 137.8, 321.2)"> </text><text xml:space="preserve" font-family="ArialMT,Arial" font-size="18.0" fill="#FFFFFF" transform="matrix(1.00, 0.00, -0.00, -1.00, 142.8, 321.2)">m</text><text xml:space="preserve" font-family="ArialMT,Arial" font-size="18.0" fill="#FFFFFF" transform="matrix(1.00, 0.00, -0.00, -1.00, 157.8, 321.2)">a</text><text xml:space="preserve" font-family="ArialMT,Arial" font-size="18.0" fill="#FFFFFF" transform="matrix(1.00, 0.00, -0.00, -1.00, 167.8, 321.2)">n</text><text xml:space="preserve" font-family="ArialMT,Arial" font-size="18.0" fill="#FFFFFF" transform="matrix(1.00, 0.00, -0.00, -1.00, 177.8, 321.2)">a</text><text xml:space="preserve" font-family="ArialMT,Arial" font-size="18.0" fill="#FFFFFF" transform="matrix(1.00, 0.00, -0.00, -1.00, 187.8, 321.2)">g</text><text xml:space="preserve" font-family="ArialMT,Arial" font-size="18.0" fill="#FFFFFF" transform="matrix(1.00, 0.00, -0.00, -1.00, 197.8, 321.2)">e</text><text xml:space="preserve" font-family="ArialMT,Arial" font-size="18.0" fill="#FFFFFF" transform="matrix(1.00, 0.00, -0.00, -1.00, 207.8, 321.2)">m</text><text xml:space="preserve" font-family="ArialMT,Arial" font-size="18.0" fill="#FFFFFF" transform="matrix(1.00, 0.00, -0.00, -1.00, 222.8, 321.2)">e</text><text xml:space="preserve" font-family="ArialMT,Arial" font-size="18.0" fill="#FFFFFF" transform="matrix(1.00, 0.00, -0.00, -1.00, 232.9, 321.2)">n</text><text xml:space="preserve" font-family="ArialMT,Arial" font-size="18.0" fill="#FFFFFF" transform="matrix(1.00, 0.00, -0.00, -1.00, 242.9, 321.2)">t</text><text xml:space="preserve" font-family="ArialMT,Arial" font-size="18.0" fill="#FFFFFF" transform="matrix(1.00, 0.00, -0.00, -1.00, 247.9, 321.2)"> </text><text xml:space="preserve" font-family="ArialMT,Arial" font-size="18.0" fill="#FFFFFF" transform="matrix(1.00, 0.00, -0.00, -1.00, 9.7, 300.2)">s</text><text xml:space="preserve" font-family="ArialMT,Arial" font-size="18.0" fill="#FFFFFF" transform="matrix(1.00, 0.00, -0.00, -1.00, 18.7, 300.2)">y</text><text xml:space="preserve" font-family="ArialMT,Arial" font-size="18.0" fill="#FFFFFF" transform="matrix(1.00, 0.00, -0.00, -1.00, 27.7, 300.2)">s</text><text xml:space="preserve" font-family="ArialMT,Arial" font-size="18.0" fill="#FFFFFF" transform="matrix(1.00, 0.00, -0.00, -1.00, 36.7, 300.2)">t</text><text xml:space="preserve" font-family="ArialMT,Arial" font-size="18.0" fill="#FFFFFF" transform="matrix(1.00, 0.00, -0.00, -1.00, 41.7, 300.2)">e</text><text xml:space="preserve" font-family="ArialMT,Arial" font-size="18.0" fill="#FFFFFF" transform="matrix(1.00, 0.00, -0.00, -1.00, 51.7, 300.2)">m</text><text xml:space="preserve" font-family="ArialMT,Arial" font-size="18.0" fill="#FFFFFF" transform="matrix(1.00, 0.00, -0.00, -1.00, 66.7, 300.2)"> </text><text xml:space="preserve" font-family="ArialMT,Arial" font-size="18.0" fill="#FFFFFF" transform="matrix(1.00, 0.00, -0.00, -1.00, 71.7, 300.2)">t</text><text xml:space="preserve" font-family="ArialMT,Arial" font-size="18.0" fill="#FFFFFF" transform="matrix(1.00, 0.00, -0.00, -1.00, 76.7, 300.2)">h</text><text xml:space="preserve" font-family="ArialMT,Arial" font-size="18.0" fill="#FFFFFF" transform="matrix(1.00, 0.00, -0.00, -1.00, 86.7, 300.2)">a</text><text xml:space="preserve" font-family="ArialMT,Arial" font-size="18.0" fill="#FFFFFF" transform="matrix(1.00, 0.00, -0.00, -1.00, 96.7, 300.2)">t</text><text xml:space="preserve" font-family="ArialMT,Arial" font-size="18.0" fill="#FFFFFF" transform="matrix(1.00, 0.00, -0.00, -1.00, 101.7, 300.2)"> </text><text xml:space="preserve" font-family="ArialMT,Arial" font-size="18.0" fill="#FFFFFF" transform="matrix(1.00, 0.00, -0.00, -1.00, 106.7, 300.2)">i</text><text xml:space="preserve" font-family="ArialMT,Arial" font-size="18.0" fill="#FFFFFF" transform="matrix(1.00, 0.00, -0.00, -1.00, 110.7, 300.2)">n</text><text xml:space="preserve" font-family="ArialMT,Arial" font-size="18.0" fill="#FFFFFF" transform="matrix(1.00, 0.00, -0.00, -1.00, 120.7, 300.2)">t</text><text xml:space="preserve" font-family="ArialMT,Arial" font-size="18.0" fill="#FFFFFF" transform="matrix(1.00, 0.00, -0.00, -1.00, 125.7, 300.2)">e</text><text xml:space="preserve" font-family="ArialMT,Arial" font-size="18.0" fill="#FFFFFF" transform="matrix(1.00, 0.00, -0.00, -1.00, 135.7, 300.2)">g</text><text xml:space="preserve" font-family="ArialMT,Arial" font-size="18.0" fill="#FFFFFF" transform="matrix(1.00, 0.00, -0.00, -1.00, 145.7, 300.2)">r</text><text xml:space="preserve" font-family="ArialMT,Arial" font-size="18.0" fill="#FFFFFF" transform="matrix(1.00, 0.00, -0.00, -1.00, 151.7, 300.2)">a</text><text xml:space="preserve" font-family="ArialMT,Arial" font-size="18.0" fill="#FFFFFF" transform="matrix(1.00, 0.00, -0.00, -1.00, 161.7, 300.2)">t</text><text xml:space="preserve" font-family="ArialMT,Arial" font-size="18.0" fill="#FFFFFF" transform="matrix(1.00, 0.00, -0.00, -1.00, 166.7, 300.2)">e</text><text xml:space="preserve" font-family="ArialMT,Arial" font-size="18.0" fill="#FFFFFF" transform="matrix(1.00, 0.00, -0.00, -1.00, 176.7, 300.2)">s</text><text xml:space="preserve" font-family="ArialMT,Arial" font-size="18.0" fill="#FFFFFF" transform="matrix(1.00, 0.00, -0.00, -1.00, 185.7, 300.2)"> </text><text xml:space="preserve" font-family="ArialMT,Arial" font-size="18.0" fill="#FFFFFF" transform="matrix(1.00, 0.00, -0.00, -1.00, 190.7, 300.2)">a</text><text xml:space="preserve" font-family="ArialMT,Arial" font-size="18.0" fill="#FFFFFF" transform="matrix(1.00, 0.00, -0.00, -1.00, 200.8, 300.2)">l</text><text xml:space="preserve" font-family="ArialMT,Arial" font-size="18.0" fill="#FFFFFF" transform="matrix(1.00, 0.00, -0.00, -1.00, 204.8, 300.2)">l</text><text xml:space="preserve" font-family="ArialMT,Arial" font-size="18.0" fill="#FFFFFF" transform="matrix(1.00, 0.00, -0.00, -1.00, 208.8, 300.2)"> </text><text xml:space="preserve" font-family="ArialMT,Arial" font-size="18.0" fill="#FFFFFF" transform="matrix(1.00, 0.00, -0.00, -1.00, 9.7, 279.2)">a</text><text xml:space="preserve" font-family="ArialMT,Arial" font-size="18.0" fill="#FFFFFF" transform="matrix(1.00, 0.00, -0.00, -1.00, 19.7, 279.2)">s</text><text xml:space="preserve" font-family="ArialMT,Arial" font-size="18.0" fill="#FFFFFF" transform="matrix(1.00, 0.00, -0.00, -1.00, 28.7, 279.2)">p</text><text xml:space="preserve" font-family="ArialMT,Arial" font-size="18.0" fill="#FFFFFF" transform="matrix(1.00, 0.00, -0.00, -1.00, 38.7, 279.2)">e</text><text xml:space="preserve" font-family="ArialMT,Arial" font-size="18.0" fill="#FFFFFF" transform="matrix(1.00, 0.00, -0.00, -1.00, 48.7, 279.2)">c</text><text xml:space="preserve" font-family="ArialMT,Arial" font-size="18.0" fill="#FFFFFF" transform="matrix(1.00, 0.00, -0.00, -1.00, 57.7, 279.2)">t</text><text xml:space="preserve" font-family="ArialMT,Arial" font-size="18.0" fill="#FFFFFF" transform="matrix(1.00, 0.00, -0.00, -1.00, 62.7, 279.2)">s</text><text xml:space="preserve" font-family="ArialMT,Arial" font-size="18.0" fill="#FFFFFF" transform="matrix(1.00, 0.00, -0.00, -1.00, 71.7, 279.2)"> </text><text xml:space="preserve" font-family="ArialMT,Arial" font-size="18.0" fill="#FFFFFF" transform="matrix(1.00, 0.00, -0.00, -1.00, 76.7, 279.2)">o</text><text xml:space="preserve" font-family="ArialMT,Arial" font-size="18.0" fill="#FFFFFF" transform="matrix(1.00, 0.00, -0.00, -1.00, 86.7, 279.2)">f</text><text xml:space="preserve" font-family="ArialMT,Arial" font-size="18.0" fill="#FFFFFF" transform="matrix(1.00, 0.00, -0.00, -1.00, 91.7, 279.2)"> </text><text xml:space="preserve" font-family="ArialMT,Arial" font-size="18.0" fill="#FFFFFF" transform="matrix(1.00, 0.00, -0.00, -1.00, 96.7, 279.2)">a</text><text xml:space="preserve" font-family="ArialMT,Arial" font-size="18.0" fill="#FFFFFF" transform="matrix(1.00, 0.00, -0.00, -1.00, 106.7, 279.2)"> </text><text xml:space="preserve" font-family="ArialMT,Arial" font-size="18.0" fill="#FFFFFF" transform="matrix(1.00, 0.00, -0.00, -1.00, 111.7, 279.2)">m</text><text xml:space="preserve" font-family="ArialMT,Arial" font-size="18.0" fill="#FFFFFF" transform="matrix(1.00, 0.00, -0.00, -1.00, 126.7, 279.2)">u</text><text xml:space="preserve" font-family="ArialMT,Arial" font-size="18.0" fill="#FFFFFF" transform="matrix(1.00, 0.00, -0.00, -1.00, 136.7, 279.2)">l</text><text xml:space="preserve" font-family="ArialMT,Arial" font-size="18.0" fill="#FFFFFF" transform="matrix(1.00, 0.00, -0.00, -1.00, 140.7, 279.2)">t</text><text xml:space="preserve" font-family="ArialMT,Arial" font-size="18.0" fill="#FFFFFF" transform="matrix(1.00, 0.00, -0.00, -1.00, 145.7, 279.2)">i</text><text xml:space="preserve" font-family="ArialMT,Arial" font-size="18.0" fill="#FFFFFF" transform="matrix(1.00, 0.00, -0.00, -1.00, 149.7, 279.2)">-</text><text xml:space="preserve" font-family="ArialMT,Arial" font-size="18.0" fill="#FFFFFF" transform="matrix(1.00, 0.00, -0.00, -1.00, 155.7, 279.2)">c</text><text xml:space="preserve" font-family="ArialMT,Arial" font-size="18.0" fill="#FFFFFF" transform="matrix(1.00, 0.00, -0.00, -1.00, 164.7, 279.2)">e</text><text xml:space="preserve" font-family="ArialMT,Arial" font-size="18.0" fill="#FFFFFF" transform="matrix(1.00, 0.00, -0.00, -1.00, 174.7, 279.2)">n</text><text xml:space="preserve" font-family="ArialMT,Arial" font-size="18.0" fill="#FFFFFF" transform="matrix(1.00, 0.00, -0.00, -1.00, 184.8, 279.2)">t</text><text xml:space="preserve" font-family="ArialMT,Arial" font-size="18.0" fill="#FFFFFF" transform="matrix(1.00, 0.00, -0.00, -1.00, 189.7, 279.2)">e</text><text xml:space="preserve" font-family="ArialMT,Arial" font-size="18.0" fill="#FFFFFF" transform="matrix(1.00, 0.00, -0.00, -1.00, 199.8, 279.2)">r</text><text xml:space="preserve" font-family="ArialMT,Arial" font-size="18.0" fill="#FFFFFF" transform="matrix(1.00, 0.00, -0.00, -1.00, 205.8, 279.2)"> </text><text xml:space="preserve" font-family="ArialMT,Arial" font-size="18.0" fill="#FFFFFF" transform="matrix(1.00, 0.00, -0.00, -1.00, 9.7, 258.2)">s</text><text xml:space="preserve" font-family="ArialMT,Arial" font-size="18.0" fill="#FFFFFF" transform="matrix(1.00, 0.00, -0.00, -1.00, 18.7, 258.2)">t</text><text xml:space="preserve" font-family="ArialMT,Arial" font-size="18.0" fill="#FFFFFF" transform="matrix(1.00, 0.00, -0.00, -1.00, 23.7, 258.2)">u</text><text xml:space="preserve" font-family="ArialMT,Arial" font-size="18.0" fill="#FFFFFF" transform="matrix(1.00, 0.00, -0.00, -1.00, 33.7, 258.2)">d</text><text xml:space="preserve" font-family="ArialMT,Arial" font-size="18.0" fill="#FFFFFF" transform="matrix(1.00, 0.00, -0.00, -1.00, 43.7, 258.2)">y</text><text xml:space="preserve" font-family="ArialMT,Arial" font-size="18.0" fill="#FFFFFF" transform="matrix(1.00, 0.00, -0.00, -1.00, 52.7, 258.2)">:</text><text xml:space="preserve" font-family="ArialMT,Arial" font-size="18.0" fill="#FFFFFF" transform="matrix(1.00, 0.00, -0.00, -1.00, 57.7, 258.2)"> </text><text xml:space="preserve" font-family="ArialMT,Arial" font-size="14.0" fill="#000000" transform="matrix(1.00, 0.00, -0.00, -1.00, 62.7, 258.2)"> </text><text xml:space="preserve" font-family="ArialMT,Arial" font-size="18.0" fill="#FFFFFF" transform="matrix(1.00, 0.00, -0.00, -1.00, 9.7, 237.2)">f</text><text xml:space="preserve" font-family="ArialMT,Arial" font-size="18.0" fill="#FFFFFF" transform="matrix(1.00, 0.00, -0.00, -1.00, 14.7, 237.2)">r</text><text xml:space="preserve" font-family="ArialMT,Arial" font-size="18.0" fill="#FFFFFF" transform="matrix(1.00, 0.00, -0.00, -1.00, 20.7, 237.2)">o</text><text xml:space="preserve" font-family="ArialMT,Arial" font-size="18.0" fill="#FFFFFF" transform="matrix(1.00, 0.00, -0.00, -1.00, 30.7, 237.2)">m</text><text xml:space="preserve" font-family="ArialMT,Arial" font-size="18.0" fill="#FFFFFF" transform="matrix(1.00, 0.00, -0.00, -1.00, 45.7, 237.2)"> </text><text xml:space="preserve" font-family="ArialMT,Arial" font-size="18.0" fill="#FFFFFF" transform="matrix(1.00, 0.00, -0.00, -1.00, 50.7, 237.2)">h</text><text xml:space="preserve" font-family="ArialMT,Arial" font-size="18.0" fill="#FFFFFF" transform="matrix(1.00, 0.00, -0.00, -1.00, 60.7, 237.2)">e</text><text xml:space="preserve" font-family="ArialMT,Arial" font-size="18.0" fill="#FFFFFF" transform="matrix(1.00, 0.00, -0.00, -1.00, 70.7, 237.2)">t</text><text xml:space="preserve" font-family="ArialMT,Arial" font-size="18.0" fill="#FFFFFF" transform="matrix(1.00, 0.00, -0.00, -1.00, 75.7, 237.2)">e</text><text xml:space="preserve" font-family="ArialMT,Arial" font-size="18.0" fill="#FFFFFF" transform="matrix(1.00, 0.00, -0.00, -1.00, 85.7, 237.2)">r</text><text xml:space="preserve" font-family="ArialMT,Arial" font-size="18.0" fill="#FFFFFF" transform="matrix(1.00, 0.00, -0.00, -1.00, 91.7, 237.2)">o</text><text xml:space="preserve" font-family="ArialMT,Arial" font-size="18.0" fill="#FFFFFF" transform="matrix(1.00, 0.00, -0.00, -1.00, 101.7, 237.2)">g</text><text xml:space="preserve" font-family="ArialMT,Arial" font-size="18.0" fill="#FFFFFF" transform="matrix(1.00, 0.00, -0.00, -1.00, 111.7, 237.2)">e</text><text xml:space="preserve" font-family="ArialMT,Arial" font-size="18.0" fill="#FFFFFF" transform="matrix(1.00, 0.00, -0.00, -1.00, 121.7, 237.2)">n</text><text xml:space="preserve" font-family="ArialMT,Arial" font-size="18.0" fill="#FFFFFF" transform="matrix(1.00, 0.00, -0.00, -1.00, 131.7, 237.2)">e</text><text xml:space="preserve" font-family="ArialMT,Arial" font-size="18.0" fill="#FFFFFF" transform="matrix(1.00, 0.00, -0.00, -1.00, 141.8, 237.2)">o</text><text xml:space="preserve" font-family="ArialMT,Arial" font-size="18.0" fill="#FFFFFF" transform="matrix(1.00, 0.00, -0.00, -1.00, 151.8, 237.2)">u</text><text xml:space="preserve" font-family="ArialMT,Arial" font-size="18.0" fill="#FFFFFF" transform="matrix(1.00, 0.00, -0.00, -1.00, 161.8, 237.2)">s</text><text xml:space="preserve" font-family="ArialMT,Arial" font-size="18.0" fill="#FFFFFF" transform="matrix(1.00, 0.00, -0.00, -1.00, 170.8, 237.2)"> </text><text xml:space="preserve" font-family="ArialMT,Arial" font-size="18.0" fill="#FFFFFF" transform="matrix(1.00, 0.00, -0.00, -1.00, 175.8, 237.2)">d</text><text xml:space="preserve" font-family="ArialMT,Arial" font-size="18.0" fill="#FFFFFF" transform="matrix(1.00, 0.00, -0.00, -1.00, 185.8, 237.2)">a</text><text xml:space="preserve" font-family="ArialMT,Arial" font-size="18.0" fill="#FFFFFF" transform="matrix(1.00, 0.00, -0.00, -1.00, 195.8, 237.2)">t</text><text xml:space="preserve" font-family="ArialMT,Arial" font-size="18.0" fill="#FFFFFF" transform="matrix(1.00, 0.00, -0.00, -1.00, 200.8, 237.2)">a</text><text xml:space="preserve" font-family="ArialMT,Arial" font-size="18.0" fill="#FFFFFF" transform="matrix(1.00, 0.00, -0.00, -1.00, 210.8, 237.2)"> </text><text xml:space="preserve" font-family="ArialMT,Arial" font-size="18.0" fill="#FFFFFF" transform="matrix(1.00, 0.00, -0.00, -1.00, 9.7, 216.2)">a</text><text xml:space="preserve" font-family="ArialMT,Arial" font-size="18.0" fill="#FFFFFF" transform="matrix(1.00, 0.00, -0.00, -1.00, 19.7, 216.2)">c</text><text xml:space="preserve" font-family="ArialMT,Arial" font-size="18.0" fill="#FFFFFF" transform="matrix(1.00, 0.00, -0.00, -1.00, 28.7, 216.2)">q</text><text xml:space="preserve" font-family="ArialMT,Arial" font-size="18.0" fill="#FFFFFF" transform="matrix(1.00, 0.00, -0.00, -1.00, 38.7, 216.2)">u</text><text xml:space="preserve" font-family="ArialMT,Arial" font-size="18.0" fill="#FFFFFF" transform="matrix(1.00, 0.00, -0.00, -1.00, 48.7, 216.2)">i</text><text xml:space="preserve" font-family="ArialMT,Arial" font-size="18.0" fill="#FFFFFF" transform="matrix(1.00, 0.00, -0.00, -1.00, 52.7, 216.2)">s</text><text xml:space="preserve" font-family="ArialMT,Arial" font-size="18.0" fill="#FFFFFF" transform="matrix(1.00, 0.00, -0.00, -1.00, 61.7, 216.2)">i</text><text xml:space="preserve" font-family="ArialMT,Arial" font-size="18.0" fill="#FFFFFF" transform="matrix(1.00, 0.00, -0.00, -1.00, 65.7, 216.2)">t</text><text xml:space="preserve" font-family="ArialMT,Arial" font-size="18.0" fill="#FFFFFF" transform="matrix(1.00, 0.00, -0.00, -1.00, 70.7, 216.2)">i</text><text xml:space="preserve" font-family="ArialMT,Arial" font-size="18.0" fill="#FFFFFF" transform="matrix(1.00, 0.00, -0.00, -1.00, 74.7, 216.2)">o</text><text xml:space="preserve" font-family="ArialMT,Arial" font-size="18.0" fill="#FFFFFF" transform="matrix(1.00, 0.00, -0.00, -1.00, 84.7, 216.2)">n</text><text xml:space="preserve" font-family="ArialMT,Arial" font-size="18.0" fill="#FFFFFF" transform="matrix(1.00, 0.00, -0.00, -1.00, 94.7, 216.2)"> </text><text xml:space="preserve" font-family="ArialMT,Arial" font-size="18.0" fill="#FFFFFF" transform="matrix(1.00, 0.00, -0.00, -1.00, 99.7, 216.2)">(</text><text xml:space="preserve" font-family="ArialMT,Arial" font-size="18.0" fill="#FFFFFF" transform="matrix(1.00, 0.00, -0.00, -1.00, 105.7, 216.2)">i</text><text xml:space="preserve" font-family="ArialMT,Arial" font-size="18.0" fill="#FFFFFF" transform="matrix(1.00, 0.00, -0.00, -1.00, 109.7, 216.2)">m</text><text xml:space="preserve" font-family="ArialMT,Arial" font-size="18.0" fill="#FFFFFF" transform="matrix(1.00, 0.00, -0.00, -1.00, 124.7, 216.2)">a</text><text xml:space="preserve" font-family="ArialMT,Arial" font-size="18.0" fill="#FFFFFF" transform="matrix(1.00, 0.00, -0.00, -1.00, 134.7, 216.2)">g</text><text xml:space="preserve" font-family="ArialMT,Arial" font-size="18.0" fill="#FFFFFF" transform="matrix(1.00, 0.00, -0.00, -1.00, 144.8, 216.2)">i</text><text xml:space="preserve" font-family="ArialMT,Arial" font-size="18.0" fill="#FFFFFF" transform="matrix(1.00, 0.00, -0.00, -1.00, 148.8, 216.2)">n</text><text xml:space="preserve" font-family="ArialMT,Arial" font-size="18.0" fill="#FFFFFF" transform="matrix(1.00, 0.00, -0.00, -1.00, 158.8, 216.2)">g</text><text xml:space="preserve" font-family="ArialMT,Arial" font-size="18.0" fill="#FFFFFF" transform="matrix(1.00, 0.00, -0.00, -1.00, 168.8, 216.2)">,</text><text xml:space="preserve" font-family="ArialMT,Arial" font-size="18.0" fill="#FFFFFF" transform="matrix(1.00, 0.00, -0.00, -1.00, 173.8, 216.2)"> </text><text xml:space="preserve" font-family="ArialMT,Arial" font-size="18.0" fill="#FFFFFF" transform="matrix(1.00, 0.00, -0.00, -1.00, 178.8, 216.2)">c</text><text xml:space="preserve" font-family="ArialMT,Arial" font-size="18.0" fill="#FFFFFF" transform="matrix(1.00, 0.00, -0.00, -1.00, 187.8, 216.2)">l</text><text xml:space="preserve" font-family="ArialMT,Arial" font-size="18.0" fill="#FFFFFF" transform="matrix(1.00, 0.00, -0.00, -1.00, 191.8, 216.2)">i</text><text xml:space="preserve" font-family="ArialMT,Arial" font-size="18.0" fill="#FFFFFF" transform="matrix(1.00, 0.00, -0.00, -1.00, 195.8, 216.2)">n</text><text xml:space="preserve" font-family="ArialMT,Arial" font-size="18.0" fill="#FFFFFF" transform="matrix(1.00, 0.00, -0.00, -1.00, 205.8, 216.2)">i</text><text xml:space="preserve" font-family="ArialMT,Arial" font-size="18.0" fill="#FFFFFF" transform="matrix(1.00, 0.00, -0.00, -1.00, 209.8, 216.2)">c</text><text xml:space="preserve" font-family="ArialMT,Arial" font-size="18.0" fill="#FFFFFF" transform="matrix(1.00, 0.00, -0.00, -1.00, 218.8, 216.2)">a</text><text xml:space="preserve" font-family="ArialMT,Arial" font-size="18.0" fill="#FFFFFF" transform="matrix(1.00, 0.00, -0.00, -1.00, 228.8, 216.2)">l</text><text xml:space="preserve" font-family="ArialMT,Arial" font-size="18.0" fill="#FFFFFF" transform="matrix(1.00, 0.00, -0.00, -1.00, 232.8, 216.2)">,</text><text xml:space="preserve" font-family="ArialMT,Arial" font-size="18.0" fill="#FFFFFF" transform="matrix(1.00, 0.00, -0.00, -1.00, 237.8, 216.2)"> </text><text xml:space="preserve" font-family="ArialMT,Arial" font-size="18.0" fill="#FFFFFF" transform="matrix(1.00, 0.00, -0.00, -1.00, 9.7, 195.2)">b</text><text xml:space="preserve" font-family="ArialMT,Arial" font-size="18.0" fill="#FFFFFF" transform="matrix(1.00, 0.00, -0.00, -1.00, 19.7, 195.2)">e</text><text xml:space="preserve" font-family="ArialMT,Arial" font-size="18.0" fill="#FFFFFF" transform="matrix(1.00, 0.00, -0.00, -1.00, 29.7, 195.2)">h</text><text xml:space="preserve" font-family="ArialMT,Arial" font-size="18.0" fill="#FFFFFF" transform="matrix(1.00, 0.00, -0.00, -1.00, 39.7, 195.2)">a</text><text xml:space="preserve" font-family="ArialMT,Arial" font-size="18.0" fill="#FFFFFF" transform="matrix(1.00, 0.00, -0.00, -1.00, 49.7, 195.2)">v</text><text xml:space="preserve" font-family="ArialMT,Arial" font-size="18.0" fill="#FFFFFF" transform="matrix(1.00, 0.00, -0.00, -1.00, 58.7, 195.2)">i</text><text xml:space="preserve" font-family="ArialMT,Arial" font-size="18.0" fill="#FFFFFF" transform="matrix(1.00, 0.00, -0.00, -1.00, 62.7, 195.2)">o</text><text xml:space="preserve" font-family="ArialMT,Arial" font-size="18.0" fill="#FFFFFF" transform="matrix(1.00, 0.00, -0.00, -1.00, 72.7, 195.2)">r</text><text xml:space="preserve" font-family="ArialMT,Arial" font-size="18.0" fill="#FFFFFF" transform="matrix(1.00, 0.00, -0.00, -1.00, 77.7, 195.2)">,</text><text xml:space="preserve" font-family="ArialMT,Arial" font-size="18.0" fill="#FFFFFF" transform="matrix(1.00, 0.00, -0.00, -1.00, 82.7, 195.2)"> </text><text xml:space="preserve" font-family="ArialMT,Arial" font-size="18.0" fill="#FFFFFF" transform="matrix(1.00, 0.00, -0.00, -1.00, 87.7, 195.2)">g</text><text xml:space="preserve" font-family="ArialMT,Arial" font-size="18.0" fill="#FFFFFF" transform="matrix(1.00, 0.00, -0.00, -1.00, 97.7, 195.2)">e</text><text xml:space="preserve" font-family="ArialMT,Arial" font-size="18.0" fill="#FFFFFF" transform="matrix(1.00, 0.00, -0.00, -1.00, 107.8, 195.2)">n</text><text xml:space="preserve" font-family="ArialMT,Arial" font-size="18.0" fill="#FFFFFF" transform="matrix(1.00, 0.00, -0.00, -1.00, 117.8, 195.2)">e</text><text xml:space="preserve" font-family="ArialMT,Arial" font-size="18.0" fill="#FFFFFF" transform="matrix(1.00, 0.00, -0.00, -1.00, 127.8, 195.2)">t</text><text xml:space="preserve" font-family="ArialMT,Arial" font-size="18.0" fill="#FFFFFF" transform="matrix(1.00, 0.00, -0.00, -1.00, 132.8, 195.2)">i</text><text xml:space="preserve" font-family="ArialMT,Arial" font-size="18.0" fill="#FFFFFF" transform="matrix(1.00, 0.00, -0.00, -1.00, 136.8, 195.2)">c</text><text xml:space="preserve" font-family="ArialMT,Arial" font-size="18.0" fill="#FFFFFF" transform="matrix(1.00, 0.00, -0.00, -1.00, 145.8, 195.2)">s</text><text xml:space="preserve" font-family="ArialMT,Arial" font-size="18.0" fill="#FFFFFF" transform="matrix(1.00, 0.00, -0.00, -1.00, 154.8, 195.2)">)</text><text xml:space="preserve" font-family="ArialMT,Arial" font-size="18.0" fill="#FFFFFF" transform="matrix(1.00, 0.00, -0.00, -1.00, 160.8, 195.2)"> </text><text xml:space="preserve" font-family="ArialMT,Arial" font-size="18.0" fill="#FFFFFF" transform="matrix(1.00, 0.00, -0.00, -1.00, 165.8, 195.2)">t</text><text xml:space="preserve" font-family="ArialMT,Arial" font-size="18.0" fill="#FFFFFF" transform="matrix(1.00, 0.00, -0.00, -1.00, 170.8, 195.2)">o</text><text xml:space="preserve" font-family="ArialMT,Arial" font-size="18.0" fill="#FFFFFF" transform="matrix(1.00, 0.00, -0.00, -1.00, 180.8, 195.2)"> </text><text xml:space="preserve" font-family="ArialMT,Arial" font-size="18.0" fill="#FFFFFF" transform="matrix(1.00, 0.00, -0.00, -1.00, 185.8, 195.2)">s</text><text xml:space="preserve" font-family="ArialMT,Arial" font-size="18.0" fill="#FFFFFF" transform="matrix(1.00, 0.00, -0.00, -1.00, 194.8, 195.2)">t</text><text xml:space="preserve" font-family="ArialMT,Arial" font-size="18.0" fill="#FFFFFF" transform="matrix(1.00, 0.00, -0.00, -1.00, 199.8, 195.2)">o</text><text xml:space="preserve" font-family="ArialMT,Arial" font-size="18.0" fill="#FFFFFF" transform="matrix(1.00, 0.00, -0.00, -1.00, 209.8, 195.2)">r</text><text xml:space="preserve" font-family="ArialMT,Arial" font-size="18.0" fill="#FFFFFF" transform="matrix(1.00, 0.00, -0.00, -1.00, 215.8, 195.2)">a</text><text xml:space="preserve" font-family="ArialMT,Arial" font-size="18.0" fill="#FFFFFF" transform="matrix(1.00, 0.00, -0.00, -1.00, 225.8, 195.2)">g</text><text xml:space="preserve" font-family="ArialMT,Arial" font-size="18.0" fill="#FFFFFF" transform="matrix(1.00, 0.00, -0.00, -1.00, 235.8, 195.2)">e</text><text xml:space="preserve" font-family="ArialMT,Arial" font-size="18.0" fill="#FFFFFF" transform="matrix(1.00, 0.00, -0.00, -1.00, 245.8, 195.2)">,</text><text xml:space="preserve" font-family="ArialMT,Arial" font-size="18.0" fill="#FFFFFF" transform="matrix(1.00, 0.00, -0.00, -1.00, 250.8, 195.2)"> </text><text xml:space="preserve" font-family="ArialMT,Arial" font-size="18.0" fill="#FFFFFF" transform="matrix(1.00, 0.00, -0.00, -1.00, 9.7, 174.2)">p</text><text xml:space="preserve" font-family="ArialMT,Arial" font-size="18.0" fill="#FFFFFF" transform="matrix(1.00, 0.00, -0.00, -1.00, 19.7, 174.2)">r</text><text xml:space="preserve" font-family="ArialMT,Arial" font-size="18.0" fill="#FFFFFF" transform="matrix(1.00, 0.00, -0.00, -1.00, 25.7, 174.2)">o</text><text xml:space="preserve" font-family="ArialMT,Arial" font-size="18.0" fill="#FFFFFF" transform="matrix(1.00, 0.00, -0.00, -1.00, 35.7, 174.2)">c</text><text xml:space="preserve" font-family="ArialMT,Arial" font-size="18.0" fill="#FFFFFF" transform="matrix(1.00, 0.00, -0.00, -1.00, 44.7, 174.2)">e</text><text xml:space="preserve" font-family="ArialMT,Arial" font-size="18.0" fill="#FFFFFF" transform="matrix(1.00, 0.00, -0.00, -1.00, 54.7, 174.2)">s</text><text xml:space="preserve" font-family="ArialMT,Arial" font-size="18.0" fill="#FFFFFF" transform="matrix(1.00, 0.00, -0.00, -1.00, 63.7, 174.2)">s</text><text xml:space="preserve" font-family="ArialMT,Arial" font-size="18.0" fill="#FFFFFF" transform="matrix(1.00, 0.00, -0.00, -1.00, 72.7, 174.2)">i</text><text xml:space="preserve" font-family="ArialMT,Arial" font-size="18.0" fill="#FFFFFF" transform="matrix(1.00, 0.00, -0.00, -1.00, 76.7, 174.2)">n</text><text xml:space="preserve" font-family="ArialMT,Arial" font-size="18.0" fill="#FFFFFF" transform="matrix(1.00, 0.00, -0.00, -1.00, 86.7, 174.2)">g</text><text xml:space="preserve" font-family="ArialMT,Arial" font-size="18.0" fill="#FFFFFF" transform="matrix(1.00, 0.00, -0.00, -1.00, 96.7, 174.2)"> </text><text xml:space="preserve" font-family="ArialMT,Arial" font-size="18.0" fill="#FFFFFF" transform="matrix(1.00, 0.00, -0.00, -1.00, 101.7, 174.2)">a</text><text xml:space="preserve" font-family="ArialMT,Arial" font-size="18.0" fill="#FFFFFF" transform="matrix(1.00, 0.00, -0.00, -1.00, 111.7, 174.2)">n</text><text xml:space="preserve" font-family="ArialMT,Arial" font-size="18.0" fill="#FFFFFF" transform="matrix(1.00, 0.00, -0.00, -1.00, 121.8, 174.2)">d</text><text xml:space="preserve" font-family="ArialMT,Arial" font-size="18.0" fill="#FFFFFF" transform="matrix(1.00, 0.00, -0.00, -1.00, 131.8, 174.2)"> </text><text xml:space="preserve" font-family="ArialMT,Arial" font-size="18.0" fill="#FFFFFF" transform="matrix(1.00, 0.00, -0.00, -1.00, 136.8, 174.2)">u</text><text xml:space="preserve" font-family="ArialMT,Arial" font-size="18.0" fill="#FFFFFF" transform="matrix(1.00, 0.00, -0.00, -1.00, 146.8, 174.2)">l</text><text xml:space="preserve" font-family="ArialMT,Arial" font-size="18.0" fill="#FFFFFF" transform="matrix(1.00, 0.00, -0.00, -1.00, 150.8, 174.2)">t</text><text xml:space="preserve" font-family="ArialMT,Arial" font-size="18.0" fill="#FFFFFF" transform="matrix(1.00, 0.00, -0.00, -1.00, 155.8, 174.2)">i</text><text xml:space="preserve" font-family="ArialMT,Arial" font-size="18.0" fill="#FFFFFF" transform="matrix(1.00, 0.00, -0.00, -1.00, 159.8, 174.2)">m</text><text xml:space="preserve" font-family="ArialMT,Arial" font-size="18.0" fill="#FFFFFF" transform="matrix(1.00, 0.00, -0.00, -1.00, 174.8, 174.2)">a</text><text xml:space="preserve" font-family="ArialMT,Arial" font-size="18.0" fill="#FFFFFF" transform="matrix(1.00, 0.00, -0.00, -1.00, 184.8, 174.2)">t</text><text xml:space="preserve" font-family="ArialMT,Arial" font-size="18.0" fill="#FFFFFF" transform="matrix(1.00, 0.00, -0.00, -1.00, 189.8, 174.2)">e</text><text xml:space="preserve" font-family="ArialMT,Arial" font-size="18.0" fill="#FFFFFF" transform="matrix(1.00, 0.00, -0.00, -1.00, 199.8, 174.2)">l</text><text xml:space="preserve" font-family="ArialMT,Arial" font-size="18.0" fill="#FFFFFF" transform="matrix(1.00, 0.00, -0.00, -1.00, 203.8, 174.2)">y</text><text xml:space="preserve" font-family="ArialMT,Arial" font-size="18.0" fill="#FFFFFF" transform="matrix(1.00, 0.00, -0.00, -1.00, 212.8, 174.2)"> </text><text xml:space="preserve" font-family="ArialMT,Arial" font-size="18.0" fill="#FFFFFF" transform="matrix(1.00, 0.00, -0.00, -1.00, 9.7, 153.2)">d</text><text xml:space="preserve" font-family="ArialMT,Arial" font-size="18.0" fill="#FFFFFF" transform="matrix(1.00, 0.00, -0.00, -1.00, 19.7, 153.2)">i</text><text xml:space="preserve" font-family="ArialMT,Arial" font-size="18.0" fill="#FFFFFF" transform="matrix(1.00, 0.00, -0.00, -1.00, 23.7, 153.2)">s</text><text xml:space="preserve" font-family="ArialMT,Arial" font-size="18.0" fill="#FFFFFF" transform="matrix(1.00, 0.00, -0.00, -1.00, 32.7, 153.2)">s</text><text xml:space="preserve" font-family="ArialMT,Arial" font-size="18.0" fill="#FFFFFF" transform="matrix(1.00, 0.00, -0.00, -1.00, 41.7, 153.2)">e</text><text xml:space="preserve" font-family="ArialMT,Arial" font-size="18.0" fill="#FFFFFF" transform="matrix(1.00, 0.00, -0.00, -1.00, 51.7, 153.2)">m</text><text xml:space="preserve" font-family="ArialMT,Arial" font-size="18.0" fill="#FFFFFF" transform="matrix(1.00, 0.00, -0.00, -1.00, 66.7, 153.2)">i</text><text xml:space="preserve" font-family="ArialMT,Arial" font-size="18.0" fill="#FFFFFF" transform="matrix(1.00, 0.00, -0.00, -1.00, 70.7, 153.2)">n</text><text xml:space="preserve" font-family="ArialMT,Arial" font-size="18.0" fill="#FFFFFF" transform="matrix(1.00, 0.00, -0.00, -1.00, 80.7, 153.2)">a</text><text xml:space="preserve" font-family="ArialMT,Arial" font-size="18.0" fill="#FFFFFF" transform="matrix(1.00, 0.00, -0.00, -1.00, 90.7, 153.2)">t</text><text xml:space="preserve" font-family="ArialMT,Arial" font-size="18.0" fill="#FFFFFF" transform="matrix(1.00, 0.00, -0.00, -1.00, 95.7, 153.2)">i</text><text xml:space="preserve" font-family="ArialMT,Arial" font-size="18.0" fill="#FFFFFF" transform="matrix(1.00, 0.00, -0.00, -1.00, 99.7, 153.2)">o</text><text xml:space="preserve" font-family="ArialMT,Arial" font-size="18.0" fill="#FFFFFF" transform="matrix(1.00, 0.00, -0.00, -1.00, 109.7, 153.2)">n</text><text xml:space="preserve" font-family="ArialMT,Arial" font-size="18.0" fill="#FFFFFF" transform="matrix(1.00, 0.00, -0.00, -1.00, 119.7, 153.2)">.</text><text xml:space="preserve" font-family="ArialMT,Arial" font-size="18.0" fill="#FFFFFF" transform="matrix(1.00, 0.00, -0.00, -1.00, 124.7, 153.2)">”</text><image xlink:href="../../5F7BEFA3-17FA-4E39-BAF2-473BBC82F8FF/assets/EB4C5CAC864C148630349238736C1329.png" width="1030.00" height="1114.00" transform="matrix(0.52, 0.00, -0.00, -0.54, 265.3, 600.0)"></image><image xlink:href="../../5F7BEFA3-17FA-4E39-BAF2-473BBC82F8FF/assets/EB4C5CAC864C148630349238736C1329.png" width="1030.00" height="1114.00" transform="matrix(0.52, 0.00, -0.00, -0.54, 277.3, 588.0)"></image></g></svg>