<?xml version="1.0" encoding="UTF-8" standalone="no"?><svg xmlns="http://www.w3.org/2000/svg" xmlns:xlink="http://www.w3.org/1999/xlink" clip-rule="evenodd" stroke-miterlimit="10" viewBox="0 0 276 37"><desc>SVG generated by Keynote</desc><defs></defs><g transform="matrix(1.00, 0.00, -0.00, -1.00, 0.0, 37.0)"><g><clipPath id="clip0x7fa2bd071510"><path d="M 0.8 0.8 L 275.2 0.8 L 275.2 36.9 L 0.8 36.9 Z M 0.8 0.8 "></path></clipPath><g clip-path="url(#clip0x7fa2bd071510)"><path d="M 2.0 36.0 L 274.0 36.0 L 274.0 2.0 L 2.0 2.0 Z M 1.8 35.9 " fill="#341B74"></path></g></g><g><clipPath id="clip0x7fa2bd06f200"><path d="M 1.8 5.9 L 274.2 5.9 L 274.2 35.9 L 1.8 35.9 Z M 1.8 5.9 "></path></clipPath><g clip-path="url(#clip0x7fa2bd06f200)"><text xml:space="preserve" font-family="ArialMT,Arial" font-size="14.0" fill="#FFFFFF" transform="matrix(1.00, 0.00, -0.00, -1.00, 39.3, 16.1)">W</text><text xml:space="preserve" font-family="ArialMT,Arial" font-size="14.0" fill="#FFFFFF" transform="matrix(1.00, 0.00, -0.00, -1.00, 52.3, 16.1)">e</text><text xml:space="preserve" font-family="ArialMT,Arial" font-size="14.0" fill="#FFFFFF" transform="matrix(1.00, 0.00, -0.00, -1.00, 60.0, 16.1)">b</text><text xml:space="preserve" font-family="ArialMT,Arial" font-size="14.0" fill="#FFFFFF" transform="matrix(1.00, 0.00, -0.00, -1.00, 67.8, 16.1)"> </text><text xml:space="preserve" font-family="ArialMT,Arial" font-size="14.0" fill="#FFFFFF" transform="matrix(1.00, 0.00, -0.00, -1.00, 71.7, 16.1)">B</text><text xml:space="preserve" font-family="ArialMT,Arial" font-size="14.0" fill="#FFFFFF" transform="matrix(1.00, 0.00, -0.00, -1.00, 81.1, 16.1)">a</text><text xml:space="preserve" font-family="ArialMT,Arial" font-size="14.0" fill="#FFFFFF" transform="matrix(1.00, 0.00, -0.00, -1.00, 88.8, 16.1)">s</text><text xml:space="preserve" font-family="ArialMT,Arial" font-size="14.0" fill="#FFFFFF" transform="matrix(1.00, 0.00, -0.00, -1.00, 95.8, 16.1)">e</text><text xml:space="preserve" font-family="ArialMT,Arial" font-size="14.0" fill="#FFFFFF" transform="matrix(1.00, 0.00, -0.00, -1.00, 103.6, 16.1)">d</text><text xml:space="preserve" font-family="ArialMT,Arial" font-size="14.0" fill="#FFFFFF" transform="matrix(1.00, 0.00, -0.00, -1.00, 111.4, 16.1)"> </text><text xml:space="preserve" font-family="ArialMT,Arial" font-size="14.0" fill="#FFFFFF" transform="matrix(1.00, 0.00, -0.00, -1.00, 115.3, 16.1)">D</text><text xml:space="preserve" font-family="ArialMT,Arial" font-size="14.0" fill="#FFFFFF" transform="matrix(1.00, 0.00, -0.00, -1.00, 125.4, 16.1)">a</text><text xml:space="preserve" font-family="ArialMT,Arial" font-size="14.0" fill="#FFFFFF" transform="matrix(1.00, 0.00, -0.00, -1.00, 133.2, 16.1)">t</text><text xml:space="preserve" font-family="ArialMT,Arial" font-size="14.0" fill="#FFFFFF" transform="matrix(1.00, 0.00, -0.00, -1.00, 137.1, 16.1)">a</text><text xml:space="preserve" font-family="ArialMT,Arial" font-size="14.0" fill="#FFFFFF" transform="matrix(1.00, 0.00, -0.00, -1.00, 144.9, 16.1)"> </text><text xml:space="preserve" font-family="ArialMT,Arial" font-size="14.0" fill="#FFFFFF" transform="matrix(1.00, 0.00, -0.00, -1.00, 148.8, 16.1)">D</text><text xml:space="preserve" font-family="ArialMT,Arial" font-size="14.0" fill="#FFFFFF" transform="matrix(1.00, 0.00, -0.00, -1.00, 158.9, 16.1)">i</text><text xml:space="preserve" font-family="ArialMT,Arial" font-size="14.0" fill="#FFFFFF" transform="matrix(1.00, 0.00, -0.00, -1.00, 162.0, 16.1)">s</text><text xml:space="preserve" font-family="ArialMT,Arial" font-size="14.0" fill="#FFFFFF" transform="matrix(1.00, 0.00, -0.00, -1.00, 169.0, 16.1)">s</text><text xml:space="preserve" font-family="ArialMT,Arial" font-size="14.0" fill="#FFFFFF" transform="matrix(1.00, 0.00, -0.00, -1.00, 176.0, 16.1)">e</text><text xml:space="preserve" font-family="ArialMT,Arial" font-size="14.0" fill="#FFFFFF" transform="matrix(1.00, 0.00, -0.00, -1.00, 183.8, 16.1)">m</text><text xml:space="preserve" font-family="ArialMT,Arial" font-size="14.0" fill="#FFFFFF" transform="matrix(1.00, 0.00, -0.00, -1.00, 195.5, 16.1)">i</text><text xml:space="preserve" font-family="ArialMT,Arial" font-size="14.0" fill="#FFFFFF" transform="matrix(1.00, 0.00, -0.00, -1.00, 198.6, 16.1)">n</text><text xml:space="preserve" font-family="ArialMT,Arial" font-size="14.0" fill="#FFFFFF" transform="matrix(1.00, 0.00, -0.00, -1.00, 206.4, 16.1)">a</text><text xml:space="preserve" font-family="ArialMT,Arial" font-size="14.0" fill="#FFFFFF" transform="matrix(1.00, 0.00, -0.00, -1.00, 214.1, 16.1)">t</text><text xml:space="preserve" font-family="ArialMT,Arial" font-size="14.0" fill="#FFFFFF" transform="matrix(1.00, 0.00, -0.00, -1.00, 218.0, 16.1)">i</text><text xml:space="preserve" font-family="ArialMT,Arial" font-size="14.0" fill="#FFFFFF" transform="matrix(1.00, 0.00, -0.00, -1.00, 221.1, 16.1)">o</text><text xml:space="preserve" font-family="ArialMT,Arial" font-size="14.0" fill="#FFFFFF" transform="matrix(1.00, 0.00, -0.00, -1.00, 228.9, 16.1)">n</text></g></g></g></svg>