<?xml version="1.0" encoding="UTF-8" standalone="no"?><svg xmlns="http://www.w3.org/2000/svg" xmlns:xlink="http://www.w3.org/1999/xlink" clip-rule="evenodd" stroke-miterlimit="10" viewBox="0 0 800 600"><desc>SVG generated by Keynote</desc><defs></defs><g transform="matrix(1.00, 0.00, -0.00, -1.00, 0.0, 600.0)"><g><clipPath id="clip0x7fa2bd20b9f0"><path d="M 0.0 600.0 L 800.0 600.0 L 800.0 0.0 L 0.0 0.0 Z M 0.0 600.0 "></path></clipPath><g clip-path="url(#clip0x7fa2bd20b9f0)"><image xlink:href="../../C4DDE765-8938-4467-BDB7-430C61022F9E/assets/CA73AF76AA37EA4881A8CFF12D65F767.jpeg" width="640.00" height="400.00" transform="matrix(1.25, 0.00, -0.00, -1.50, 0.0, 600.0)"></image></g></g><path d="M 31.0 78.0 L 785.0 78.0 L 785.0 7.0 L 31.0 7.0 Z M 31.1 77.8 " fill="#666666"></path><g><clipPath id="clip0x7fa2bcc620a0"><path d="M 29.1 7.1 L 786.9 7.1 L 786.9 79.8 L 29.1 79.8 Z M 29.1 7.1 "></path></clipPath><g clip-path="url(#clip0x7fa2bcc620a0)"><text xml:space="preserve" font-family="ArialMT,Arial" font-size="18.0" fill="#FFFFFF" transform="matrix(1.00, 0.00, -0.00, -1.00, 278.9, 58.2)">U</text><text xml:space="preserve" font-family="ArialMT,Arial" font-size="18.0" fill="#FFFFFF" transform="matrix(1.00, 0.00, -0.00, -1.00, 291.9, 58.2)">N</text><text xml:space="preserve" font-family="ArialMT,Arial" font-size="18.0" fill="#FFFFFF" transform="matrix(1.00, 0.00, -0.00, -1.00, 304.9, 58.2)">I</text><text xml:space="preserve" font-family="ArialMT,Arial" font-size="18.0" fill="#FFFFFF" transform="matrix(1.00, 0.00, -0.00, -1.00, 309.9, 58.2)">X</text><text xml:space="preserve" font-family="ArialMT,Arial" font-size="18.0" fill="#FFFFFF" transform="matrix(1.00, 0.00, -0.00, -1.00, 321.9, 58.2)"> </text><text xml:space="preserve" font-family="ArialMT,Arial" font-size="18.0" fill="#FFFFFF" transform="matrix(1.00, 0.00, -0.00, -1.00, 326.9, 58.2)">b</text><text xml:space="preserve" font-family="ArialMT,Arial" font-size="18.0" fill="#FFFFFF" transform="matrix(1.00, 0.00, -0.00, -1.00, 336.9, 58.2)">a</text><text xml:space="preserve" font-family="ArialMT,Arial" font-size="18.0" fill="#FFFFFF" transform="matrix(1.00, 0.00, -0.00, -1.00, 347.0, 58.2)">s</text><text xml:space="preserve" font-family="ArialMT,Arial" font-size="18.0" fill="#FFFFFF" transform="matrix(1.00, 0.00, -0.00, -1.00, 356.0, 58.2)">e</text><text xml:space="preserve" font-family="ArialMT,Arial" font-size="18.0" fill="#FFFFFF" transform="matrix(1.00, 0.00, -0.00, -1.00, 366.0, 58.2)">d</text><text xml:space="preserve" font-family="ArialMT,Arial" font-size="18.0" fill="#FFFFFF" transform="matrix(1.00, 0.00, -0.00, -1.00, 376.0, 58.2)"> </text><text xml:space="preserve" font-family="ArialMT,Arial" font-size="18.0" fill="#FFFFFF" transform="matrix(1.00, 0.00, -0.00, -1.00, 381.0, 58.2)">D</text><text xml:space="preserve" font-family="ArialMT,Arial" font-size="18.0" fill="#FFFFFF" transform="matrix(1.00, 0.00, -0.00, -1.00, 394.0, 58.2)">a</text><text xml:space="preserve" font-family="ArialMT,Arial" font-size="18.0" fill="#FFFFFF" transform="matrix(1.00, 0.00, -0.00, -1.00, 404.0, 58.2)">t</text><text xml:space="preserve" font-family="ArialMT,Arial" font-size="18.0" fill="#FFFFFF" transform="matrix(1.00, 0.00, -0.00, -1.00, 409.0, 58.2)">a</text><text xml:space="preserve" font-family="ArialMT,Arial" font-size="18.0" fill="#FFFFFF" transform="matrix(1.00, 0.00, -0.00, -1.00, 419.0, 58.2)"> </text><text xml:space="preserve" font-family="ArialMT,Arial" font-size="18.0" fill="#FFFFFF" transform="matrix(1.00, 0.00, -0.00, -1.00, 424.0, 58.2)">D</text><text xml:space="preserve" font-family="ArialMT,Arial" font-size="18.0" fill="#FFFFFF" transform="matrix(1.00, 0.00, -0.00, -1.00, 437.0, 58.2)">i</text><text xml:space="preserve" font-family="ArialMT,Arial" font-size="18.0" fill="#FFFFFF" transform="matrix(1.00, 0.00, -0.00, -1.00, 441.0, 58.2)">s</text><text xml:space="preserve" font-family="ArialMT,Arial" font-size="18.0" fill="#FFFFFF" transform="matrix(1.00, 0.00, -0.00, -1.00, 450.0, 58.2)">s</text><text xml:space="preserve" font-family="ArialMT,Arial" font-size="18.0" fill="#FFFFFF" transform="matrix(1.00, 0.00, -0.00, -1.00, 459.0, 58.2)">e</text><text xml:space="preserve" font-family="ArialMT,Arial" font-size="18.0" fill="#FFFFFF" transform="matrix(1.00, 0.00, -0.00, -1.00, 469.0, 58.2)">m</text><text xml:space="preserve" font-family="ArialMT,Arial" font-size="18.0" fill="#FFFFFF" transform="matrix(1.00, 0.00, -0.00, -1.00, 484.0, 58.2)">i</text><text xml:space="preserve" font-family="ArialMT,Arial" font-size="18.0" fill="#FFFFFF" transform="matrix(1.00, 0.00, -0.00, -1.00, 488.0, 58.2)">n</text><text xml:space="preserve" font-family="ArialMT,Arial" font-size="18.0" fill="#FFFFFF" transform="matrix(1.00, 0.00, -0.00, -1.00, 498.0, 58.2)">a</text><text xml:space="preserve" font-family="ArialMT,Arial" font-size="18.0" fill="#FFFFFF" transform="matrix(1.00, 0.00, -0.00, -1.00, 508.1, 58.2)">t</text><text xml:space="preserve" font-family="ArialMT,Arial" font-size="18.0" fill="#FFFFFF" transform="matrix(1.00, 0.00, -0.00, -1.00, 513.1, 58.2)">i</text><text xml:space="preserve" font-family="ArialMT,Arial" font-size="18.0" fill="#FFFFFF" transform="matrix(1.00, 0.00, -0.00, -1.00, 517.1, 58.2)">o</text><text xml:space="preserve" font-family="ArialMT,Arial" font-size="18.0" fill="#FFFFFF" transform="matrix(1.00, 0.00, -0.00, -1.00, 527.1, 58.2)">n</text></g></g><image xlink:href="../../0970D2AD-7A18-4EC9-9EA1-77D395BFB3E4/assets/C5AB2AE6A0502352D7F3F9027F26D6B8.png" width="1051.00" height="598.00" transform="matrix(0.72, 0.00, -0.00, -0.73, 31.1, 512.6)"></image><image xlink:href="../../0970D2AD-7A18-4EC9-9EA1-77D395BFB3E4/assets/50D50AFD9CCD8A33E67B16D824E90A76.jpeg" width="275.00" height="183.00" transform="matrix(0.93, 0.00, -0.00, -1.05, 9.2, 530.7)"></image><g><clipPath id="clip0x7fa2bd23be30"><path d="M 8.2 296.0 L 264.8 296.0 L 264.8 341.4 L 8.2 341.4 Z M 8.2 296.0 "></path></clipPath><g clip-path="url(#clip0x7fa2bd23be30)"><path d="M 9.0 340.0 L 264.0 340.0 L 264.0 297.0 L 9.0 297.0 Z M 9.2 340.4 " fill="#666666"></path></g></g><g><clipPath id="clip0x7fa2bd51b5a0"><path d="M 7.2 308.3 L 265.8 308.3 L 265.8 342.5 L 7.2 342.5 Z M 7.2 308.3 "></path></clipPath><g clip-path="url(#clip0x7fa2bd51b5a0)"><text xml:space="preserve" font-family="ArialMT,Arial" font-size="18.0" fill="#FFFFFF" transform="matrix(1.00, 0.00, -0.00, -1.00, 72.0, 320.8)">D</text><text xml:space="preserve" font-family="ArialMT,Arial" font-size="18.0" fill="#FFFFFF" transform="matrix(1.00, 0.00, -0.00, -1.00, 85.0, 320.8)">a</text><text xml:space="preserve" font-family="ArialMT,Arial" font-size="18.0" fill="#FFFFFF" transform="matrix(1.00, 0.00, -0.00, -1.00, 95.0, 320.8)">t</text><text xml:space="preserve" font-family="ArialMT,Arial" font-size="18.0" fill="#FFFFFF" transform="matrix(1.00, 0.00, -0.00, -1.00, 100.0, 320.8)">a</text><text xml:space="preserve" font-family="ArialMT,Arial" font-size="18.0" fill="#FFFFFF" transform="matrix(1.00, 0.00, -0.00, -1.00, 110.0, 320.8)"> </text><text xml:space="preserve" font-family="ArialMT,Arial" font-size="18.0" fill="#FFFFFF" transform="matrix(1.00, 0.00, -0.00, -1.00, 114.0, 320.8)">A</text><text xml:space="preserve" font-family="ArialMT,Arial" font-size="18.0" fill="#FFFFFF" transform="matrix(1.00, 0.00, -0.00, -1.00, 126.0, 320.8)">c</text><text xml:space="preserve" font-family="ArialMT,Arial" font-size="18.0" fill="#FFFFFF" transform="matrix(1.00, 0.00, -0.00, -1.00, 135.0, 320.8)">q</text><text xml:space="preserve" font-family="ArialMT,Arial" font-size="18.0" fill="#FFFFFF" transform="matrix(1.00, 0.00, -0.00, -1.00, 145.0, 320.8)">u</text><text xml:space="preserve" font-family="ArialMT,Arial" font-size="18.0" fill="#FFFFFF" transform="matrix(1.00, 0.00, -0.00, -1.00, 155.0, 320.8)">i</text><text xml:space="preserve" font-family="ArialMT,Arial" font-size="18.0" fill="#FFFFFF" transform="matrix(1.00, 0.00, -0.00, -1.00, 159.0, 320.8)">s</text><text xml:space="preserve" font-family="ArialMT,Arial" font-size="18.0" fill="#FFFFFF" transform="matrix(1.00, 0.00, -0.00, -1.00, 168.0, 320.8)">i</text><text xml:space="preserve" font-family="ArialMT,Arial" font-size="18.0" fill="#FFFFFF" transform="matrix(1.00, 0.00, -0.00, -1.00, 172.0, 320.8)">t</text><text xml:space="preserve" font-family="ArialMT,Arial" font-size="18.0" fill="#FFFFFF" transform="matrix(1.00, 0.00, -0.00, -1.00, 177.0, 320.8)">i</text><text xml:space="preserve" font-family="ArialMT,Arial" font-size="18.0" fill="#FFFFFF" transform="matrix(1.00, 0.00, -0.00, -1.00, 181.0, 320.8)">o</text><text xml:space="preserve" font-family="ArialMT,Arial" font-size="18.0" fill="#FFFFFF" transform="matrix(1.00, 0.00, -0.00, -1.00, 191.1, 320.8)">n</text></g></g><image xlink:href="../../0970D2AD-7A18-4EC9-9EA1-77D395BFB3E4/assets/BDE671E8CCA76B9B9396DD2484AD3234.png" width="887.00" height="697.00" transform="matrix(0.31, 0.00, -0.00, -0.40, 263.8, 530.7)"></image><g><clipPath id="clip0x7fa2bc960410"><path d="M 262.8 248.1 L 537.2 248.1 L 537.2 291.1 L 262.8 291.1 Z M 262.8 248.1 "></path></clipPath><g clip-path="url(#clip0x7fa2bc960410)"><path d="M 264.0 290.0 L 536.0 290.0 L 536.0 249.0 L 264.0 249.0 Z M 263.8 290.1 " fill="#1154CC"></path></g></g><g><clipPath id="clip0x7fa2bc8e1c70"><path d="M 263.8 260.1 L 536.2 260.1 L 536.2 290.1 L 263.8 290.1 Z M 263.8 260.1 "></path></clipPath><g clip-path="url(#clip0x7fa2bc8e1c70)"><text xml:space="preserve" font-family="ArialMT,Arial" font-size="14.0" fill="#FFFFFF" transform="matrix(1.00, 0.00, -0.00, -1.00, 297.7, 270.3)">S</text><text xml:space="preserve" font-family="ArialMT,Arial" font-size="14.0" fill="#FFFFFF" transform="matrix(1.00, 0.00, -0.00, -1.00, 307.0, 270.3)">t</text><text xml:space="preserve" font-family="ArialMT,Arial" font-size="14.0" fill="#FFFFFF" transform="matrix(1.00, 0.00, -0.00, -1.00, 310.9, 270.3)">u</text><text xml:space="preserve" font-family="ArialMT,Arial" font-size="14.0" fill="#FFFFFF" transform="matrix(1.00, 0.00, -0.00, -1.00, 318.7, 270.3)">d</text><text xml:space="preserve" font-family="ArialMT,Arial" font-size="14.0" fill="#FFFFFF" transform="matrix(1.00, 0.00, -0.00, -1.00, 326.5, 270.3)">y</text><text xml:space="preserve" font-family="ArialMT,Arial" font-size="14.0" fill="#FFFFFF" transform="matrix(1.00, 0.00, -0.00, -1.00, 333.5, 270.3)"> </text><text xml:space="preserve" font-family="ArialMT,Arial" font-size="14.0" fill="#FFFFFF" transform="matrix(1.00, 0.00, -0.00, -1.00, 337.3, 270.3)">M</text><text xml:space="preserve" font-family="ArialMT,Arial" font-size="14.0" fill="#FFFFFF" transform="matrix(1.00, 0.00, -0.00, -1.00, 349.0, 270.3)">a</text><text xml:space="preserve" font-family="ArialMT,Arial" font-size="14.0" fill="#FFFFFF" transform="matrix(1.00, 0.00, -0.00, -1.00, 356.8, 270.3)">n</text><text xml:space="preserve" font-family="ArialMT,Arial" font-size="14.0" fill="#FFFFFF" transform="matrix(1.00, 0.00, -0.00, -1.00, 364.6, 270.3)">a</text><text xml:space="preserve" font-family="ArialMT,Arial" font-size="14.0" fill="#FFFFFF" transform="matrix(1.00, 0.00, -0.00, -1.00, 372.4, 270.3)">g</text><text xml:space="preserve" font-family="ArialMT,Arial" font-size="14.0" fill="#FFFFFF" transform="matrix(1.00, 0.00, -0.00, -1.00, 380.2, 270.3)">e</text><text xml:space="preserve" font-family="ArialMT,Arial" font-size="14.0" fill="#FFFFFF" transform="matrix(1.00, 0.00, -0.00, -1.00, 388.0, 270.3)">m</text><text xml:space="preserve" font-family="ArialMT,Arial" font-size="14.0" fill="#FFFFFF" transform="matrix(1.00, 0.00, -0.00, -1.00, 399.6, 270.3)">e</text><text xml:space="preserve" font-family="ArialMT,Arial" font-size="14.0" fill="#FFFFFF" transform="matrix(1.00, 0.00, -0.00, -1.00, 407.4, 270.3)">n</text><text xml:space="preserve" font-family="ArialMT,Arial" font-size="14.0" fill="#FFFFFF" transform="matrix(1.00, 0.00, -0.00, -1.00, 415.2, 270.3)">t</text><text xml:space="preserve" font-family="ArialMT,Arial" font-size="14.0" fill="#FFFFFF" transform="matrix(1.00, 0.00, -0.00, -1.00, 419.1, 270.3)">/</text><text xml:space="preserve" font-family="ArialMT,Arial" font-size="14.0" fill="#FFFFFF" transform="matrix(1.00, 0.00, -0.00, -1.00, 423.0, 270.3)">C</text><text xml:space="preserve" font-family="ArialMT,Arial" font-size="14.0" fill="#FFFFFF" transform="matrix(1.00, 0.00, -0.00, -1.00, 433.1, 270.3)">o</text><text xml:space="preserve" font-family="ArialMT,Arial" font-size="14.0" fill="#FFFFFF" transform="matrix(1.00, 0.00, -0.00, -1.00, 440.9, 270.3)">o</text><text xml:space="preserve" font-family="ArialMT,Arial" font-size="14.0" fill="#FFFFFF" transform="matrix(1.00, 0.00, -0.00, -1.00, 448.7, 270.3)">r</text><text xml:space="preserve" font-family="ArialMT,Arial" font-size="14.0" fill="#FFFFFF" transform="matrix(1.00, 0.00, -0.00, -1.00, 453.3, 270.3)">d</text><text xml:space="preserve" font-family="ArialMT,Arial" font-size="14.0" fill="#FFFFFF" transform="matrix(1.00, 0.00, -0.00, -1.00, 461.1, 270.3)">i</text><text xml:space="preserve" font-family="ArialMT,Arial" font-size="14.0" fill="#FFFFFF" transform="matrix(1.00, 0.00, -0.00, -1.00, 464.2, 270.3)">n</text><text xml:space="preserve" font-family="ArialMT,Arial" font-size="14.0" fill="#FFFFFF" transform="matrix(1.00, 0.00, -0.00, -1.00, 472.0, 270.3)">a</text><text xml:space="preserve" font-family="ArialMT,Arial" font-size="14.0" fill="#FFFFFF" transform="matrix(1.00, 0.00, -0.00, -1.00, 479.8, 270.3)">t</text><text xml:space="preserve" font-family="ArialMT,Arial" font-size="14.0" fill="#FFFFFF" transform="matrix(1.00, 0.00, -0.00, -1.00, 483.7, 270.3)">i</text><text xml:space="preserve" font-family="ArialMT,Arial" font-size="14.0" fill="#FFFFFF" transform="matrix(1.00, 0.00, -0.00, -1.00, 486.8, 270.3)">o</text><text xml:space="preserve" font-family="ArialMT,Arial" font-size="14.0" fill="#FFFFFF" transform="matrix(1.00, 0.00, -0.00, -1.00, 494.6, 270.3)">n</text></g></g><image xlink:href="../../0970D2AD-7A18-4EC9-9EA1-77D395BFB3E4/assets/CD0CDB5848FDE7DA776DBF0F4EFD4B27.jpeg" width="380.00" height="285.00" transform="matrix(0.70, 0.00, -0.00, -0.88, 530.4, 530.7)"></image><image xlink:href="../../0970D2AD-7A18-4EC9-9EA1-77D395BFB3E4/assets/5D86C405B3B4DC3B91B34BE2BD1469ED.jpeg" width="720.00" height="720.00" transform="matrix(0.09, 0.00, -0.00, -0.10, 530.4, 523.9)"></image><image xlink:href="../../0970D2AD-7A18-4EC9-9EA1-77D395BFB3E4/assets/DED38D3E0FA216393B4880FC450F469A.jpeg" width="255.00" height="198.00" transform="matrix(0.32, 0.00, -0.00, -0.34, 712.9, 348.4)"></image><image xlink:href="../../0970D2AD-7A18-4EC9-9EA1-77D395BFB3E4/assets/7F3708729B53263DDCDAA2F5913D5E95.jpeg" width="225.00" height="225.00" transform="matrix(0.30, 0.00, -0.00, -0.32, 530.4, 355.7)"></image><image xlink:href="../../0970D2AD-7A18-4EC9-9EA1-77D395BFB3E4/assets/DD2B9EE684E686F01118A04F8CDA250F.jpeg" width="201.00" height="251.00" transform="matrix(0.34, 0.00, -0.00, -0.36, 726.8, 527.1)"></image><g><clipPath id="clip0x7fa2bd149a60"><path d="M 529.8 248.1 L 796.2 248.1 L 796.2 281.4 L 529.8 281.4 Z M 529.8 248.1 "></path></clipPath><g clip-path="url(#clip0x7fa2bd149a60)"><path d="M 531.0 280.0 L 795.0 280.0 L 795.0 249.0 L 531.0 249.0 Z M 530.8 280.4 " fill="#1E9804"></path></g></g><g><clipPath id="clip0x7fa2bd13b930"><path d="M 530.8 221.5 L 795.2 221.5 L 795.2 280.4 L 530.8 280.4 Z M 530.8 221.5 "></path></clipPath><g clip-path="url(#clip0x7fa2bd13b930)"><text xml:space="preserve" font-family="ArialMT,Arial" font-size="18.0" fill="#FFFFFF" transform="matrix(1.00, 0.00, -0.00, -1.00, 597.0, 256.6)">D</text><text xml:space="preserve" font-family="ArialMT,Arial" font-size="18.0" fill="#FFFFFF" transform="matrix(1.00, 0.00, -0.00, -1.00, 610.0, 256.6)">a</text><text xml:space="preserve" font-family="ArialMT,Arial" font-size="18.0" fill="#FFFFFF" transform="matrix(1.00, 0.00, -0.00, -1.00, 620.0, 256.6)">t</text><text xml:space="preserve" font-family="ArialMT,Arial" font-size="18.0" fill="#FFFFFF" transform="matrix(1.00, 0.00, -0.00, -1.00, 625.0, 256.6)">a</text><text xml:space="preserve" font-family="ArialMT,Arial" font-size="18.0" fill="#FFFFFF" transform="matrix(1.00, 0.00, -0.00, -1.00, 635.0, 256.6)"> </text><text xml:space="preserve" font-family="ArialMT,Arial" font-size="18.0" fill="#FFFFFF" transform="matrix(1.00, 0.00, -0.00, -1.00, 640.0, 256.6)">P</text><text xml:space="preserve" font-family="ArialMT,Arial" font-size="18.0" fill="#FFFFFF" transform="matrix(1.00, 0.00, -0.00, -1.00, 652.0, 256.6)">r</text><text xml:space="preserve" font-family="ArialMT,Arial" font-size="18.0" fill="#FFFFFF" transform="matrix(1.00, 0.00, -0.00, -1.00, 658.0, 256.6)">o</text><text xml:space="preserve" font-family="ArialMT,Arial" font-size="18.0" fill="#FFFFFF" transform="matrix(1.00, 0.00, -0.00, -1.00, 668.0, 256.6)">c</text><text xml:space="preserve" font-family="ArialMT,Arial" font-size="18.0" fill="#FFFFFF" transform="matrix(1.00, 0.00, -0.00, -1.00, 677.0, 256.6)">e</text><text xml:space="preserve" font-family="ArialMT,Arial" font-size="18.0" fill="#FFFFFF" transform="matrix(1.00, 0.00, -0.00, -1.00, 687.0, 256.6)">s</text><text xml:space="preserve" font-family="ArialMT,Arial" font-size="18.0" fill="#FFFFFF" transform="matrix(1.00, 0.00, -0.00, -1.00, 696.0, 256.6)">s</text><text xml:space="preserve" font-family="ArialMT,Arial" font-size="18.0" fill="#FFFFFF" transform="matrix(1.00, 0.00, -0.00, -1.00, 705.0, 256.6)">i</text><text xml:space="preserve" font-family="ArialMT,Arial" font-size="18.0" fill="#FFFFFF" transform="matrix(1.00, 0.00, -0.00, -1.00, 709.0, 256.6)">n</text><text xml:space="preserve" font-family="ArialMT,Arial" font-size="18.0" fill="#FFFFFF" transform="matrix(1.00, 0.00, -0.00, -1.00, 719.0, 256.6)">g</text><text xml:space="preserve" font-family="ArialMT,Arial" font-size="18.0" fill="#FFFFFF" transform="matrix(1.00, 0.00, -0.00, -1.00, 729.0, 256.6)"> </text></g></g><g><clipPath id="clip0x7fa2bd13c520"><path d="M 4.1 16.8 L 264.8 16.8 L 264.8 58.7 L 4.1 58.7 Z M 4.1 16.8 "></path></clipPath><g clip-path="url(#clip0x7fa2bd13c520)"><path d="M 5.0 58.0 L 264.0 58.0 L 264.0 18.0 L 5.0 18.0 Z M 5.1 57.7 " fill="#9900FF"></path></g></g><g><clipPath id="clip0x7fa2bd132340"><path d="M 5.1 27.8 L 263.8 27.8 L 263.8 57.7 L 5.1 57.7 Z M 5.1 27.8 "></path></clipPath><g clip-path="url(#clip0x7fa2bd132340)"><text xml:space="preserve" font-family="ArialMT,Arial" font-size="14.0" fill="#FFFFFF" transform="matrix(1.00, 0.00, -0.00, -1.00, 88.1, 37.9)">Q</text><text xml:space="preserve" font-family="ArialMT,Arial" font-size="14.0" fill="#FFFFFF" transform="matrix(1.00, 0.00, -0.00, -1.00, 99.0, 37.9)">u</text><text xml:space="preserve" font-family="ArialMT,Arial" font-size="14.0" fill="#FFFFFF" transform="matrix(1.00, 0.00, -0.00, -1.00, 106.8, 37.9)">a</text><text xml:space="preserve" font-family="ArialMT,Arial" font-size="14.0" fill="#FFFFFF" transform="matrix(1.00, 0.00, -0.00, -1.00, 114.6, 37.9)">l</text><text xml:space="preserve" font-family="ArialMT,Arial" font-size="14.0" fill="#FFFFFF" transform="matrix(1.00, 0.00, -0.00, -1.00, 117.7, 37.9)">i</text><text xml:space="preserve" font-family="ArialMT,Arial" font-size="14.0" fill="#FFFFFF" transform="matrix(1.00, 0.00, -0.00, -1.00, 120.8, 37.9)">t</text><text xml:space="preserve" font-family="ArialMT,Arial" font-size="14.0" fill="#FFFFFF" transform="matrix(1.00, 0.00, -0.00, -1.00, 124.7, 37.9)">y</text><text xml:space="preserve" font-family="ArialMT,Arial" font-size="14.0" fill="#FFFFFF" transform="matrix(1.00, 0.00, -0.00, -1.00, 131.7, 37.9)"> </text><text xml:space="preserve" font-family="ArialMT,Arial" font-size="14.0" fill="#FFFFFF" transform="matrix(1.00, 0.00, -0.00, -1.00, 135.6, 37.9)">C</text><text xml:space="preserve" font-family="ArialMT,Arial" font-size="14.0" fill="#FFFFFF" transform="matrix(1.00, 0.00, -0.00, -1.00, 145.7, 37.9)">o</text><text xml:space="preserve" font-family="ArialMT,Arial" font-size="14.0" fill="#FFFFFF" transform="matrix(1.00, 0.00, -0.00, -1.00, 153.5, 37.9)">n</text><text xml:space="preserve" font-family="ArialMT,Arial" font-size="14.0" fill="#FFFFFF" transform="matrix(1.00, 0.00, -0.00, -1.00, 161.3, 37.9)">t</text><text xml:space="preserve" font-family="ArialMT,Arial" font-size="14.0" fill="#FFFFFF" transform="matrix(1.00, 0.00, -0.00, -1.00, 165.2, 37.9)">r</text><text xml:space="preserve" font-family="ArialMT,Arial" font-size="14.0" fill="#FFFFFF" transform="matrix(1.00, 0.00, -0.00, -1.00, 169.8, 37.9)">o</text><text xml:space="preserve" font-family="ArialMT,Arial" font-size="14.0" fill="#FFFFFF" transform="matrix(1.00, 0.00, -0.00, -1.00, 177.6, 37.9)">l</text></g></g><image xlink:href="../../0970D2AD-7A18-4EC9-9EA1-77D395BFB3E4/assets/C81611E2496A2C270190FE39013FA565.png" width="917.00" height="1191.00" transform="matrix(0.28, 0.00, -0.00, -0.21, 5.0, 297.0)"></image><image xlink:href="../../0970D2AD-7A18-4EC9-9EA1-77D395BFB3E4/assets/2A435D63A3343B3724E97D09F11591E7.png" width="760.00" height="499.00" transform="matrix(0.36, 0.00, -0.00, -0.40, 263.8, 249.1)"></image><g><clipPath id="clip0x7fa2bd524190"><path d="M 262.8 16.8 L 537.2 16.8 L 537.2 52.9 L 262.8 52.9 Z M 262.8 16.8 "></path></clipPath><g clip-path="url(#clip0x7fa2bd524190)"><path d="M 264.0 52.0 L 536.0 52.0 L 536.0 18.0 L 264.0 18.0 Z M 263.8 51.9 " fill="#341B74"></path></g></g><g><clipPath id="clip0x7fa2bd5259d0"><path d="M 263.8 21.9 L 536.2 21.9 L 536.2 51.9 L 263.8 51.9 Z M 263.8 21.9 "></path></clipPath><g clip-path="url(#clip0x7fa2bd5259d0)"><text xml:space="preserve" font-family="ArialMT,Arial" font-size="14.0" fill="#FFFFFF" transform="matrix(1.00, 0.00, -0.00, -1.00, 301.3, 32.1)">W</text><text xml:space="preserve" font-family="ArialMT,Arial" font-size="14.0" fill="#FFFFFF" transform="matrix(1.00, 0.00, -0.00, -1.00, 314.3, 32.1)">e</text><text xml:space="preserve" font-family="ArialMT,Arial" font-size="14.0" fill="#FFFFFF" transform="matrix(1.00, 0.00, -0.00, -1.00, 322.0, 32.1)">b</text><text xml:space="preserve" font-family="ArialMT,Arial" font-size="14.0" fill="#FFFFFF" transform="matrix(1.00, 0.00, -0.00, -1.00, 329.8, 32.1)"> </text><text xml:space="preserve" font-family="ArialMT,Arial" font-size="14.0" fill="#FFFFFF" transform="matrix(1.00, 0.00, -0.00, -1.00, 333.7, 32.1)">B</text><text xml:space="preserve" font-family="ArialMT,Arial" font-size="14.0" fill="#FFFFFF" transform="matrix(1.00, 0.00, -0.00, -1.00, 343.1, 32.1)">a</text><text xml:space="preserve" font-family="ArialMT,Arial" font-size="14.0" fill="#FFFFFF" transform="matrix(1.00, 0.00, -0.00, -1.00, 350.8, 32.1)">s</text><text xml:space="preserve" font-family="ArialMT,Arial" font-size="14.0" fill="#FFFFFF" transform="matrix(1.00, 0.00, -0.00, -1.00, 357.8, 32.1)">e</text><text xml:space="preserve" font-family="ArialMT,Arial" font-size="14.0" fill="#FFFFFF" transform="matrix(1.00, 0.00, -0.00, -1.00, 365.6, 32.1)">d</text><text xml:space="preserve" font-family="ArialMT,Arial" font-size="14.0" fill="#FFFFFF" transform="matrix(1.00, 0.00, -0.00, -1.00, 373.4, 32.1)"> </text><text xml:space="preserve" font-family="ArialMT,Arial" font-size="14.0" fill="#FFFFFF" transform="matrix(1.00, 0.00, -0.00, -1.00, 377.3, 32.1)">D</text><text xml:space="preserve" font-family="ArialMT,Arial" font-size="14.0" fill="#FFFFFF" transform="matrix(1.00, 0.00, -0.00, -1.00, 387.4, 32.1)">a</text><text xml:space="preserve" font-family="ArialMT,Arial" font-size="14.0" fill="#FFFFFF" transform="matrix(1.00, 0.00, -0.00, -1.00, 395.2, 32.1)">t</text><text xml:space="preserve" font-family="ArialMT,Arial" font-size="14.0" fill="#FFFFFF" transform="matrix(1.00, 0.00, -0.00, -1.00, 399.1, 32.1)">a</text><text xml:space="preserve" font-family="ArialMT,Arial" font-size="14.0" fill="#FFFFFF" transform="matrix(1.00, 0.00, -0.00, -1.00, 406.9, 32.1)"> </text><text xml:space="preserve" font-family="ArialMT,Arial" font-size="14.0" fill="#FFFFFF" transform="matrix(1.00, 0.00, -0.00, -1.00, 410.8, 32.1)">D</text><text xml:space="preserve" font-family="ArialMT,Arial" font-size="14.0" fill="#FFFFFF" transform="matrix(1.00, 0.00, -0.00, -1.00, 420.9, 32.1)">i</text><text xml:space="preserve" font-family="ArialMT,Arial" font-size="14.0" fill="#FFFFFF" transform="matrix(1.00, 0.00, -0.00, -1.00, 424.0, 32.1)">s</text><text xml:space="preserve" font-family="ArialMT,Arial" font-size="14.0" fill="#FFFFFF" transform="matrix(1.00, 0.00, -0.00, -1.00, 431.0, 32.1)">s</text><text xml:space="preserve" font-family="ArialMT,Arial" font-size="14.0" fill="#FFFFFF" transform="matrix(1.00, 0.00, -0.00, -1.00, 438.0, 32.1)">e</text><text xml:space="preserve" font-family="ArialMT,Arial" font-size="14.0" fill="#FFFFFF" transform="matrix(1.00, 0.00, -0.00, -1.00, 445.8, 32.1)">m</text><text xml:space="preserve" font-family="ArialMT,Arial" font-size="14.0" fill="#FFFFFF" transform="matrix(1.00, 0.00, -0.00, -1.00, 457.5, 32.1)">i</text><text xml:space="preserve" font-family="ArialMT,Arial" font-size="14.0" fill="#FFFFFF" transform="matrix(1.00, 0.00, -0.00, -1.00, 460.6, 32.1)">n</text><text xml:space="preserve" font-family="ArialMT,Arial" font-size="14.0" fill="#FFFFFF" transform="matrix(1.00, 0.00, -0.00, -1.00, 468.4, 32.1)">a</text><text xml:space="preserve" font-family="ArialMT,Arial" font-size="14.0" fill="#FFFFFF" transform="matrix(1.00, 0.00, -0.00, -1.00, 476.1, 32.1)">t</text><text xml:space="preserve" font-family="ArialMT,Arial" font-size="14.0" fill="#FFFFFF" transform="matrix(1.00, 0.00, -0.00, -1.00, 480.0, 32.1)">i</text><text xml:space="preserve" font-family="ArialMT,Arial" font-size="14.0" fill="#FFFFFF" transform="matrix(1.00, 0.00, -0.00, -1.00, 483.1, 32.1)">o</text><text xml:space="preserve" font-family="ArialMT,Arial" font-size="14.0" fill="#FFFFFF" transform="matrix(1.00, 0.00, -0.00, -1.00, 490.9, 32.1)">n</text></g></g><g><clipPath id="clip0x7fa2bd5264e0"><path d="M 534.6 21.0 L 801.0 21.0 L 801.0 60.0 L 534.6 60.0 Z M 534.6 21.0 "></path></clipPath><g clip-path="url(#clip0x7fa2bd5264e0)"><path d="M 536.0 59.0 L 800.0 59.0 L 800.0 22.0 L 536.0 22.0 Z M 535.6 59.0 " fill="#FF0000"></path></g></g><g><clipPath id="clip0x7fa2bd532960"><path d="M 533.6 26.9 L 802.0 26.9 L 802.0 61.0 L 533.6 61.0 Z M 533.6 26.9 "></path></clipPath><g clip-path="url(#clip0x7fa2bd532960)"><text xml:space="preserve" font-family="ArialMT,Arial" font-size="18.0" fill="#FFFFFF" transform="matrix(1.00, 0.00, -0.00, -1.00, 605.8, 39.4)"> </text><text xml:space="preserve" font-family="ArialMT,Arial" font-size="14.0" fill="#FFFFFF" transform="matrix(1.00, 0.00, -0.00, -1.00, 610.8, 39.4)"> </text><text xml:space="preserve" font-family="ArialMT,Arial" font-size="14.0" fill="#FFFFFF" transform="matrix(1.00, 0.00, -0.00, -1.00, 614.7, 39.4)">S</text><text xml:space="preserve" font-family="ArialMT,Arial" font-size="14.0" fill="#FFFFFF" transform="matrix(1.00, 0.00, -0.00, -1.00, 624.0, 39.4)">t</text><text xml:space="preserve" font-family="ArialMT,Arial" font-size="14.0" fill="#FFFFFF" transform="matrix(1.00, 0.00, -0.00, -1.00, 627.9, 39.4)">a</text><text xml:space="preserve" font-family="ArialMT,Arial" font-size="14.0" fill="#FFFFFF" transform="matrix(1.00, 0.00, -0.00, -1.00, 635.7, 39.4)">t</text><text xml:space="preserve" font-family="ArialMT,Arial" font-size="14.0" fill="#FFFFFF" transform="matrix(1.00, 0.00, -0.00, -1.00, 639.6, 39.4)">i</text><text xml:space="preserve" font-family="ArialMT,Arial" font-size="14.0" fill="#FFFFFF" transform="matrix(1.00, 0.00, -0.00, -1.00, 642.7, 39.4)">s</text><text xml:space="preserve" font-family="ArialMT,Arial" font-size="14.0" fill="#FFFFFF" transform="matrix(1.00, 0.00, -0.00, -1.00, 649.7, 39.4)">t</text><text xml:space="preserve" font-family="ArialMT,Arial" font-size="14.0" fill="#FFFFFF" transform="matrix(1.00, 0.00, -0.00, -1.00, 653.6, 39.4)">i</text><text xml:space="preserve" font-family="ArialMT,Arial" font-size="14.0" fill="#FFFFFF" transform="matrix(1.00, 0.00, -0.00, -1.00, 656.7, 39.4)">c</text><text xml:space="preserve" font-family="ArialMT,Arial" font-size="14.0" fill="#FFFFFF" transform="matrix(1.00, 0.00, -0.00, -1.00, 663.7, 39.4)">a</text><text xml:space="preserve" font-family="ArialMT,Arial" font-size="14.0" fill="#FFFFFF" transform="matrix(1.00, 0.00, -0.00, -1.00, 671.5, 39.4)">l</text><text xml:space="preserve" font-family="ArialMT,Arial" font-size="14.0" fill="#FFFFFF" transform="matrix(1.00, 0.00, -0.00, -1.00, 674.6, 39.4)"> </text><text xml:space="preserve" font-family="ArialMT,Arial" font-size="14.0" fill="#FFFFFF" transform="matrix(1.00, 0.00, -0.00, -1.00, 677.7, 39.4)">A</text><text xml:space="preserve" font-family="ArialMT,Arial" font-size="14.0" fill="#FFFFFF" transform="matrix(1.00, 0.00, -0.00, -1.00, 687.0, 39.4)">n</text><text xml:space="preserve" font-family="ArialMT,Arial" font-size="14.0" fill="#FFFFFF" transform="matrix(1.00, 0.00, -0.00, -1.00, 694.8, 39.4)">a</text><text xml:space="preserve" font-family="ArialMT,Arial" font-size="14.0" fill="#FFFFFF" transform="matrix(1.00, 0.00, -0.00, -1.00, 702.6, 39.4)">l</text><text xml:space="preserve" font-family="ArialMT,Arial" font-size="14.0" fill="#FFFFFF" transform="matrix(1.00, 0.00, -0.00, -1.00, 705.7, 39.4)">y</text><text xml:space="preserve" font-family="ArialMT,Arial" font-size="14.0" fill="#FFFFFF" transform="matrix(1.00, 0.00, -0.00, -1.00, 712.7, 39.4)">s</text><text xml:space="preserve" font-family="ArialMT,Arial" font-size="14.0" fill="#FFFFFF" transform="matrix(1.00, 0.00, -0.00, -1.00, 719.7, 39.4)">i</text><text xml:space="preserve" font-family="ArialMT,Arial" font-size="14.0" fill="#FFFFFF" transform="matrix(1.00, 0.00, -0.00, -1.00, 722.8, 39.4)">s</text></g></g><image xlink:href="../../0970D2AD-7A18-4EC9-9EA1-77D395BFB3E4/assets/B70890D548AD48BEF5A745319C3859C3.png" width="456.00" height="344.00" transform="matrix(0.58, 0.00, -0.00, -0.55, 535.6, 246.5)"></image><text xml:space="preserve" font-family="ArialMT,Arial" font-size="14.0" fill="#000000" transform="matrix(1.00, 0.00, -0.00, -1.00, 321.6, 556.2)">C</text><text xml:space="preserve" font-family="ArialMT,Arial" font-size="14.0" fill="#000000" transform="matrix(1.00, 0.00, -0.00, -1.00, 331.7, 556.2)">U</text><text xml:space="preserve" font-family="ArialMT,Arial" font-size="14.0" fill="#000000" transform="matrix(1.00, 0.00, -0.00, -1.00, 341.8, 556.2)">R</text><text xml:space="preserve" font-family="ArialMT,Arial" font-size="14.0" fill="#000000" transform="matrix(1.00, 0.00, -0.00, -1.00, 351.9, 556.2)">R</text><text xml:space="preserve" font-family="ArialMT,Arial" font-size="14.0" fill="#000000" transform="matrix(1.00, 0.00, -0.00, -1.00, 362.0, 556.2)">E</text><text xml:space="preserve" font-family="ArialMT,Arial" font-size="14.0" fill="#000000" transform="matrix(1.00, 0.00, -0.00, -1.00, 371.4, 556.2)">N</text><text xml:space="preserve" font-family="ArialMT,Arial" font-size="14.0" fill="#000000" transform="matrix(1.00, 0.00, -0.00, -1.00, 381.5, 556.2)">T</text><text xml:space="preserve" font-family="ArialMT,Arial" font-size="14.0" fill="#000000" transform="matrix(1.00, 0.00, -0.00, -1.00, 389.8, 556.2)"> </text><text xml:space="preserve" font-family="ArialMT,Arial" font-size="14.0" fill="#000000" transform="matrix(1.00, 0.00, -0.00, -1.00, 393.7, 556.2)">B</text><text xml:space="preserve" font-family="ArialMT,Arial" font-size="14.0" fill="#000000" transform="matrix(1.00, 0.00, -0.00, -1.00, 403.0, 556.2)">I</text><text xml:space="preserve" font-family="ArialMT,Arial" font-size="14.0" fill="#000000" transform="matrix(1.00, 0.00, -0.00, -1.00, 406.9, 556.2)">C</text><text xml:space="preserve" font-family="ArialMT,Arial" font-size="14.0" fill="#000000" transform="matrix(1.00, 0.00, -0.00, -1.00, 417.0, 556.2)"> </text><text xml:space="preserve" font-family="ArialMT,Arial" font-size="14.0" fill="#000000" transform="matrix(1.00, 0.00, -0.00, -1.00, 420.9, 556.2)">S</text><text xml:space="preserve" font-family="ArialMT,Arial" font-size="14.0" fill="#000000" transform="matrix(1.00, 0.00, -0.00, -1.00, 430.2, 556.2)">Y</text><text xml:space="preserve" font-family="ArialMT,Arial" font-size="14.0" fill="#000000" transform="matrix(1.00, 0.00, -0.00, -1.00, 439.6, 556.2)">S</text><text xml:space="preserve" font-family="ArialMT,Arial" font-size="14.0" fill="#000000" transform="matrix(1.00, 0.00, -0.00, -1.00, 448.9, 556.2)">T</text><text xml:space="preserve" font-family="ArialMT,Arial" font-size="14.0" fill="#000000" transform="matrix(1.00, 0.00, -0.00, -1.00, 457.4, 556.2)">E</text><text xml:space="preserve" font-family="ArialMT,Arial" font-size="14.0" fill="#000000" transform="matrix(1.00, 0.00, -0.00, -1.00, 466.8, 556.2)">M</text><g><clipPath id="clip0x7fa2bd128f80"><path d="M 4.1 531.0 L 795.8 531.0 L 795.8 601.0 L 4.1 601.0 Z M 4.1 531.0 "></path></clipPath><g clip-path="url(#clip0x7fa2bd128f80)"><path d="M 5.0 600.0 L 795.0 600.0 L 795.0 532.0 L 5.0 532.0 Z M 5.1 600.0 " fill="#FFFFFF"></path></g></g><g><clipPath id="clip0x7fa2bd126cb0"><path d="M 0.5 527.5 L 799.3 527.5 L 799.3 612.5 L 0.5 612.5 Z M 0.5 527.5 "></path></clipPath><g clip-path="url(#clip0x7fa2bd126cb0)"><text xml:space="preserve" font-family="Helvetica,Helvetica" font-size="50.0" fill="#0000FF" transform="matrix(1.00, 0.00, -0.00, -1.00, 324.9, 551.5)">L</text><text xml:space="preserve" font-family="Helvetica,Helvetica" font-size="50.0" fill="#0000FF" transform="matrix(1.00, 0.00, -0.00, -1.00, 352.7, 551.5)">O</text><text xml:space="preserve" font-family="Helvetica,Helvetica" font-size="50.0" fill="#0000FF" transform="matrix(1.00, 0.00, -0.00, -1.00, 391.6, 551.5)">R</text><text xml:space="preserve" font-family="Helvetica,Helvetica" font-size="50.0" fill="#0000FF" transform="matrix(1.00, 0.00, -0.00, -1.00, 427.7, 551.5)">I</text><text xml:space="preserve" font-family="Helvetica,Helvetica" font-size="50.0" fill="#0000FF" transform="matrix(1.00, 0.00, -0.00, -1.00, 441.6, 551.5)">S</text><text xml:space="preserve" font-family="Helvetica,Helvetica" font-size="50.0" fill="#0000FF" transform="matrix(1.00, 0.00, -0.00, -1.00, 474.9, 551.5)"> </text></g></g></g></svg>