<?xml version="1.0" encoding="UTF-8" standalone="no"?><svg xmlns="http://www.w3.org/2000/svg" xmlns:xlink="http://www.w3.org/1999/xlink" clip-rule="evenodd" stroke-miterlimit="10" viewBox="0 0 792 79"><desc>SVG generated by Keynote</desc><defs></defs><g transform="matrix(1.00, 0.00, -0.00, -1.00, 0.0, 79.0)"><g><clipPath id="clip0x7fa2bd05ef80"><path d="M 0.1 1.0 L 791.8 1.0 L 791.8 71.0 L 0.1 71.0 Z M 0.1 1.0 "></path></clipPath><g clip-path="url(#clip0x7fa2bd05ef80)"><path d="M 1.0 70.0 L 791.0 70.0 L 791.0 2.0 L 1.0 2.0 Z M 1.1 70.0 " fill="#FFFFFF"></path></g></g><g><clipPath id="clip0x7fa2bd05ff30"><path d="M -3.5 -2.5 L 795.3 -2.5 L 795.3 82.5 L -3.5 82.5 Z M -3.5 -2.5 "></path></clipPath><g clip-path="url(#clip0x7fa2bd05ff30)"><text xml:space="preserve" font-family="Helvetica,Helvetica" font-size="50.0" fill="#0000FF" transform="matrix(1.00, 0.00, -0.00, -1.00, 320.9, 21.5)">L</text><text xml:space="preserve" font-family="Helvetica,Helvetica" font-size="50.0" fill="#0000FF" transform="matrix(1.00, 0.00, -0.00, -1.00, 348.7, 21.5)">O</text><text xml:space="preserve" font-family="Helvetica,Helvetica" font-size="50.0" fill="#0000FF" transform="matrix(1.00, 0.00, -0.00, -1.00, 387.6, 21.5)">R</text><text xml:space="preserve" font-family="Helvetica,Helvetica" font-size="50.0" fill="#0000FF" transform="matrix(1.00, 0.00, -0.00, -1.00, 423.7, 21.5)">I</text><text xml:space="preserve" font-family="Helvetica,Helvetica" font-size="50.0" fill="#0000FF" transform="matrix(1.00, 0.00, -0.00, -1.00, 437.6, 21.5)">S</text><text xml:space="preserve" font-family="Helvetica,Helvetica" font-size="50.0" fill="#0000FF" transform="matrix(1.00, 0.00, -0.00, -1.00, 470.9, 21.5)"> </text></g></g></g></svg>